<svg xmlns="http://www.w3.org/2000/svg" width="261.641" height="52.062" viewBox="0 0 261.641 52.062">
  <g id="bugshot_extension_logo" transform="translate(-1659 -125)">
    <path id="Path_665" data-name="Path 665" d="M-16.933-2.678l-1.876,6.243h-.03l-1.876-6.243h-1.531l-1.861,6.213h-.03l-1.876-6.213h-1.5L-24.9,5.381h1.456l1.936-6.093h.03l1.936,6.093h1.456l2.6-8.058ZM-13.271.729a2.3,2.3,0,0,1,2.3-2.371c1.426,0,2.086,1.05,2.176,2.371Zm4.592,2.626a2.394,2.394,0,0,1-2.041.975,2.387,2.387,0,0,1-2.536-2.416h5.822a7.208,7.208,0,0,0,.045-.825c0-2.206-1.246-3.932-3.556-3.932-2.326,0-3.767,1.756-3.767,4.187,0,2.536,1.441,4.2,3.977,4.2A3.853,3.853,0,0,0-7.689,4.24Zm7.173,2.191c2.3,0,3.647-1.981,3.647-4.217,0-2.3-1.306-4.172-3.556-4.172A3.215,3.215,0,0,0-4.147-1.4h-.03V-6.144H-5.6V5.381H-4.3l.06-1.246h.03A3.112,3.112,0,0,0-1.506,5.546ZM-1.791,4.3c-1.636,0-2.431-1.336-2.431-2.911,0-1.516.75-2.986,2.446-2.986S.7-.172.7,1.344C.7,2.995-.186,4.3-1.791,4.3ZM8.623.729a2.3,2.3,0,0,1,2.3-2.371c1.426,0,2.086,1.05,2.176,2.371Zm4.592,2.626a2.393,2.393,0,0,1-2.041.975A2.387,2.387,0,0,1,8.638,1.914h5.822a7.207,7.207,0,0,0,.045-.825c0-2.206-1.246-3.932-3.556-3.932-2.326,0-3.767,1.756-3.767,4.187,0,2.536,1.441,4.2,3.977,4.2A3.853,3.853,0,0,0,14.205,4.24Zm9.379,2.026L19.713,1.254l2.746-3.932H20.853L18.842.339h-.03L16.8-2.678H15.136L17.9,1.269,15,5.381h1.621l2.146-3.2h.03l2.161,3.2Zm.315-6.873h1.606V3.28a2.007,2.007,0,0,0,2.236,2.266,4.713,4.713,0,0,0,1.125-.135V4.255a3.313,3.313,0,0,1-.63.06c-1.05,0-1.306-.435-1.306-1.4V-1.492h1.936V-2.678H25.94V-5.229H24.515v2.551H22.909ZM30.247.729a2.3,2.3,0,0,1,2.3-2.371c1.426,0,2.086,1.05,2.176,2.371Zm4.592,2.626a2.567,2.567,0,0,1-4.577-1.441h5.822a7.207,7.207,0,0,0,.045-.825c0-2.206-1.246-3.932-3.556-3.932-2.326,0-3.767,1.756-3.767,4.187,0,2.536,1.441,4.2,3.977,4.2A3.853,3.853,0,0,0,35.829,4.24Zm3.076,2.026h1.426V.579a2.091,2.091,0,0,1,2.206-2.191A1.728,1.728,0,0,1,43.378.264V5.381H44.8v-5.4a2.651,2.651,0,0,0-2.836-2.821,2.963,2.963,0,0,0-2.611,1.351h-.03L39.3-2.678H37.915Zm11.855.165c2.206,0,3.376-1.05,3.376-2.521,0-1.606-1.426-2.026-2.911-2.356C48.84.369,48.12.2,48.12-.547c0-.615.57-1.1,1.7-1.1a3.329,3.329,0,0,1,2.326.93L53-1.687A4.421,4.421,0,0,0,49.86-2.843c-2.1,0-3.181,1.065-3.181,2.446,0,1.561,1.351,2.026,2.866,2.356,1.351.285,2.161.465,2.161,1.231,0,.69-.615,1.155-1.891,1.155a3.594,3.594,0,0,1-2.551-.99l-.87.975A4.7,4.7,0,0,0,49.77,5.546ZM54.812-4.6h1.546V-6.144H54.812ZM56.3,5.381V-2.678H54.872V5.381Zm5.807.165a3.867,3.867,0,0,0,3.947-4.187,3.961,3.961,0,1,0-7.908,0A3.872,3.872,0,0,0,62.105,5.546ZM62.09-1.627c1.666,0,2.521,1.381,2.521,2.986,0,1.591-.855,2.971-2.521,2.971S59.584,2.95,59.584,1.359C59.584-.247,60.425-1.627,62.09-1.627ZM67.9,5.381h1.426V.579a2.091,2.091,0,0,1,2.206-2.191A1.728,1.728,0,0,1,73.36.264V5.381h1.426v-5.4A2.651,2.651,0,0,0,71.95-2.843a2.963,2.963,0,0,0-2.611,1.351h-.03l-.03-1.185H67.9Z" transform="translate(1845.855 171.516)" fill="#1a2040"/>
    <g id="Group_1778" data-name="Group 1778" transform="translate(1659 125)">
      <g id="Logo" transform="translate(0 0)">
        <g id="Group_315" data-name="Group 315" transform="translate(67.273)">
          <path id="Path_133" data-name="Path 133" d="M429.014,300.822c0,.292-.636.852-1.634.852h-7.157c-1,0-1.634-.56-1.634-.852V282.784h-6.275v18.038c0,3.916,3.548,7.1,7.909,7.1h7.157c4.361,0,7.909-3.185,7.909-7.1V282.784h-6.275Z" transform="translate(-378.653 -271.939)" fill="#1a2040"/>
          <path id="Path_134" data-name="Path 134" d="M690.77,282.784h-7.157c-4.361,0-7.909,3.186-7.909,7.1v10.936c0,3.916,3.548,7.1,7.909,7.1h7.157c4.361,0,7.909-3.185,7.909-7.1V289.885C698.679,285.97,695.131,282.784,690.77,282.784Zm1.634,18.038c0,.292-.636.852-1.634.852h-7.157c-1,0-1.634-.56-1.634-.852V289.885c0-.293.636-.852,1.634-.852h7.157c1,0,1.634.559,1.634.852Z" transform="translate(-524.397 -271.939)" fill="#1a2040"/>
          <path id="Path_135" data-name="Path 135" d="M556.78,258.481h-9.586a9.464,9.464,0,0,0-9.528,9.377v.937a7.838,7.838,0,0,0,4.981,7.317L559,282.6a1.62,1.62,0,0,1,1.028,1.512v.936a3.2,3.2,0,0,1-3.252,3.128h-9.586a3.2,3.2,0,0,1-3.253-3.128V280.9h-6.275v4.158a9.464,9.464,0,0,0,9.528,9.378h9.586a9.464,9.464,0,0,0,9.528-9.378v-.936a7.838,7.838,0,0,0-4.98-7.317l-16.357-6.493a1.619,1.619,0,0,1-1.029-1.511v-.937a3.2,3.2,0,0,1,3.253-3.128h9.586a3.2,3.2,0,0,1,3.252,3.128v4.158h6.275v-4.158A9.464,9.464,0,0,0,556.78,258.481Z" transform="translate(-448.015 -258.447)" fill="#1a2040"/>
          <path id="Path_136" data-name="Path 136" d="M490.057,282.784H482.9c-4.361,0-7.908,3.186-7.908,7.1v10.936c0,3.916,3.547,7.1,7.908,7.1h7.157a8.822,8.822,0,0,0,1.634-.153v5.15a1.632,1.632,0,0,1-1.634,1.627H478.128v6.25h11.928a7.9,7.9,0,0,0,7.909-7.877V289.885C497.965,285.97,494.418,282.784,490.057,282.784Zm1.634,18.038c0,.292-.636.852-1.634.852H482.9c-1,0-1.634-.56-1.634-.852V289.885c0-.293.636-.852,1.634-.852h7.157c1,0,1.634.559,1.634.852v10.936Z" transform="translate(-413.335 -271.939)" fill="#1a2040"/>
          <path id="Path_137" data-name="Path 137" d="M628.094,269.249h-7.157a7.86,7.86,0,0,0-1.634.172V258.4h-6.275v35.984H619.3v-17.18a1.675,1.675,0,0,1,1.634-1.709h7.157a1.675,1.675,0,0,1,1.634,1.709v17.146H636V277.208A7.943,7.943,0,0,0,628.094,269.249Z" transform="translate(-489.716 -258.404)" fill="#1a2040"/>
          <path id="Path_138" data-name="Path 138" d="M744.655,276.351V275.5h8.792v-6.25h-8.792V258.4H738.38v28.883c0,3.916,3.548,7.1,7.909,7.1h7.158v-6.249h-7.158c-1,0-1.634-.559-1.634-.852V276.351Z" transform="translate(-559.078 -258.404)" fill="#1a2040"/>
          <path id="Path_139" data-name="Path 139" d="M356.182,258.4H336.953v35.949h19.229a9.4,9.4,0,0,0,9.412-9.374v-2.351a9.314,9.314,0,0,0-2.4-6.249,9.315,9.315,0,0,0,2.4-6.25v-2.351A9.4,9.4,0,0,0,356.182,258.4Zm0,6.249a3.135,3.135,0,0,1,3.137,3.125v2.351a3.134,3.134,0,0,1-3.137,3.125H343.228v-8.6Zm3.137,20.326a3.135,3.135,0,0,1-3.137,3.125H343.228v-8.6h12.954a3.135,3.135,0,0,1,3.137,3.125Z" transform="translate(-336.953 -258.404)" fill="#1a2040"/>
        </g>
        <g id="Group_316" data-name="Group 316">
          <path id="Path_140" data-name="Path 140" d="M237.849,300.3a8.965,8.965,0,0,0-6.647-6.647v4.3h-4.1v-4.3a8.964,8.964,0,0,0-6.646,6.647h4.3v4.1h-4.3a8.964,8.964,0,0,0,6.646,6.646v-4.3h4.1v4.3a8.965,8.965,0,0,0,6.647-6.646h-4.3v-4.1Z" transform="translate(-204.021 -277.818)" fill="#18d992"/>
          <path id="Path_141" data-name="Path 141" d="M244.385,270.054a13.072,13.072,0,0,1,10.827,10.827h4.558V276.09L266.862,269a2.051,2.051,0,0,0,0-2.9L259.17,258.4l-2.9,2.9,6.242,6.242-4.792,4.792-6.242-6.242a2.05,2.05,0,0,0-1.45-.6h-5.642Z" transform="translate(-217.204 -258.404)" fill="#18d992"/>
          <path id="Path_142" data-name="Path 142" d="M259.77,322.373v-4.792h-4.558a13.072,13.072,0,0,1-10.827,10.827v4.559h5.642a2.052,2.052,0,0,0,1.45-.6l6.242-6.243,4.792,4.792-6.242,6.242,2.9,2.9,7.693-7.693a2.052,2.052,0,0,0,0-2.9Z" transform="translate(-217.204 -291.001)" fill="#18d992"/>
          <path id="Path_143" data-name="Path 143" d="M206.948,328.408a13.07,13.07,0,0,1-10.826-10.827h-4.559v4.792l-7.092,7.092a2.053,2.053,0,0,0,0,2.9l7.693,7.693,2.9-2.9-6.242-6.242,4.792-4.792,6.242,6.243a2.053,2.053,0,0,0,1.451.6h5.641Z" transform="translate(-183.87 -291.001)" fill="#18d992"/>
          <path id="Path_144" data-name="Path 144" d="M191.563,276.09v4.792h4.559a13.071,13.071,0,0,1,10.826-10.827V265.5h-5.641a2.051,2.051,0,0,0-1.451.6l-6.242,6.242-4.792-4.792,6.242-6.242-2.9-2.9L184.47,266.1a2.052,2.052,0,0,0,0,2.9Z" transform="translate(-183.87 -258.404)" fill="#18d992"/>
        </g>
      </g>
    </g>
  </g>
</svg>
