<?xml version="1.0" encoding="utf-8"?>
<!-- Generator: Adobe Illustrator 25.3.1, SVG Export Plug-In . SVG Version: 6.00 Build 0)  -->
<svg version="1.1" id="a0d0397e-a7b0-46f4-8bb3-ded3d9f4a3ec"
	 xmlns="http://www.w3.org/2000/svg" xmlns:xlink="http://www.w3.org/1999/xlink" x="0px" y="0px" viewBox="0 0 242 72"
	 style="enable-background:new 0 0 242 72;" xml:space="preserve">
<style type="text/css">
	.st0{enable-background:new    ;}
	.st1{fill:#5916B9;}
	.st2{fill:#1A2040;}
</style>
<g class="st0">
	<path class="st1" d="M79.9,28.5c-3.3,0-6-1.1-8.1-3.2c-2.1-2.2-3.1-5-3.1-8.4c0-3.7,1.1-6.6,3.2-8.9s4.9-3.4,8.4-3.4
		c3.3,0,6,1.1,8,3.2c2,2.2,3.1,5,3.1,8.5c0,3.6-1.1,6.6-3.2,8.8C86.1,27.3,83.3,28.5,79.9,28.5z M80.1,9c-1.8,0-3.3,0.7-4.4,2.1
		c-1.1,1.4-1.6,3.2-1.6,5.4c0,2.3,0.5,4.1,1.6,5.4s2.5,2,4.2,2c1.8,0,3.2-0.6,4.3-1.9c1.1-1.3,1.6-3.1,1.6-5.4
		c0-2.4-0.5-4.3-1.5-5.6S81.9,9,80.1,9z"/>
	<path class="st1" d="M102.5,28.5c-2.8,0-4.9-0.8-6.5-2.3c-1.6-1.5-2.4-3.6-2.4-6.3c0-2.7,0.8-4.9,2.4-6.4c1.6-1.5,3.8-2.3,6.6-2.3
		c2.7,0,4.9,0.8,6.4,2.3c1.6,1.5,2.3,3.6,2.3,6.1c0,2.7-0.8,4.9-2.4,6.5C107.5,27.7,105.3,28.5,102.5,28.5z M102.7,15
		c-1.2,0-2.1,0.4-2.8,1.2s-1,2-1,3.5c0,3.2,1.3,4.8,3.8,4.8c2.4,0,3.7-1.6,3.7-4.9C106.3,16.6,105.1,15,102.7,15z"/>
	<path class="st1" d="M120,26.1L120,26.1l-0.1,9.5h-5.1V11.5h5.1V14h0.1c1.3-1.9,3-2.9,5.3-2.9c2.1,0,3.8,0.7,5,2.2
		c1.2,1.5,1.7,3.5,1.7,6c0,2.8-0.7,5-2,6.6c-1.4,1.7-3.2,2.5-5.4,2.5C122.5,28.5,121,27.7,120,26.1z M119.8,19.4v1.3
		c0,1.1,0.3,2.1,0.9,2.8s1.4,1.1,2.4,1.1c1.2,0,2.1-0.4,2.7-1.3c0.6-0.9,1-2.2,1-3.8c0-2.9-1.1-4.4-3.4-4.4c-1,0-1.9,0.4-2.6,1.2
		C120.2,17,119.8,18.1,119.8,19.4z"/>
	<path class="st1" d="M134.2,27.6v-4.1c0.8,0.5,1.7,0.9,2.5,1.1c0.8,0.2,1.6,0.4,2.4,0.4c0.9,0,1.6-0.1,2.1-0.4
		c0.5-0.2,0.8-0.6,0.8-1.1c0-0.3-0.1-0.6-0.4-0.8s-0.5-0.4-0.9-0.6c-0.4-0.2-0.8-0.3-1.2-0.4s-0.9-0.3-1.3-0.4
		c-0.7-0.2-1.2-0.5-1.7-0.8c-0.5-0.3-0.9-0.6-1.3-1c-0.3-0.4-0.6-0.8-0.8-1.3c-0.2-0.5-0.3-1.1-0.3-1.8c0-0.9,0.2-1.7,0.6-2.4
		c0.4-0.7,0.9-1.2,1.6-1.6c0.7-0.4,1.4-0.7,2.3-0.9c0.9-0.2,1.8-0.3,2.7-0.3c0.7,0,1.5,0.1,2.2,0.2c0.8,0.1,1.5,0.3,2.2,0.5v3.9
		c-0.6-0.4-1.3-0.7-2.1-0.8c-0.7-0.2-1.5-0.3-2.2-0.3c-0.3,0-0.6,0-0.9,0.1c-0.3,0.1-0.6,0.1-0.8,0.3c-0.2,0.1-0.4,0.3-0.5,0.4
		c-0.1,0.2-0.2,0.4-0.2,0.6c0,0.3,0.1,0.6,0.3,0.8s0.4,0.4,0.8,0.6c0.3,0.2,0.7,0.3,1,0.4c0.4,0.1,0.8,0.2,1.1,0.4
		c0.7,0.2,1.3,0.5,1.8,0.8s1,0.6,1.4,1c0.4,0.4,0.7,0.8,0.9,1.3c0.2,0.5,0.3,1.1,0.3,1.8c0,1-0.2,1.8-0.6,2.5
		c-0.4,0.7-1,1.3-1.7,1.7c-0.7,0.4-1.5,0.8-2.4,1c-0.9,0.2-1.9,0.3-2.9,0.3C137.4,28.5,135.8,28.2,134.2,27.6z"/>
	<path class="st1" d="M152.1,28.5c-0.8,0-1.5-0.3-2.1-0.8s-0.8-1.1-0.8-1.9c0-0.8,0.3-1.4,0.9-1.9c0.6-0.5,1.3-0.7,2.2-0.7
		c0.9,0,1.6,0.2,2.1,0.7c0.6,0.5,0.8,1.1,0.8,1.9c0,0.8-0.3,1.4-0.8,1.9C153.7,28.2,153,28.5,152.1,28.5z"/>
	<path class="st1" d="M161,28.5c-0.8,0-1.5-0.3-2.1-0.8s-0.8-1.1-0.8-1.9c0-0.8,0.3-1.4,0.9-1.9c0.6-0.5,1.3-0.7,2.2-0.7
		c0.9,0,1.6,0.2,2.1,0.7c0.6,0.5,0.8,1.1,0.8,1.9c0,0.8-0.3,1.4-0.8,1.9C162.7,28.2,161.9,28.5,161,28.5z"/>
	<path class="st1" d="M170,28.5c-0.8,0-1.5-0.3-2.1-0.8s-0.8-1.1-0.8-1.9c0-0.8,0.3-1.4,0.9-1.9c0.6-0.5,1.3-0.7,2.2-0.7
		c0.9,0,1.6,0.2,2.1,0.7c0.6,0.5,0.8,1.1,0.8,1.9c0,0.8-0.3,1.4-0.8,1.9C171.6,28.2,170.9,28.5,170,28.5z"/>
</g>
<g class="st0">
	<path class="st2" d="M31.9,63.4v-1.6c0.2,0.2,0.4,0.3,0.7,0.4s0.5,0.2,0.8,0.3c0.3,0.1,0.6,0.2,0.9,0.2c0.3,0,0.6,0.1,0.8,0.1
		c0.9,0,1.5-0.2,1.9-0.5c0.4-0.3,0.6-0.8,0.6-1.4c0-0.3-0.1-0.6-0.2-0.8c-0.1-0.2-0.3-0.5-0.6-0.7s-0.5-0.4-0.9-0.6
		c-0.3-0.2-0.7-0.4-1.1-0.6c-0.4-0.2-0.8-0.4-1.2-0.6c-0.4-0.2-0.7-0.5-0.9-0.7c-0.3-0.3-0.5-0.6-0.6-0.9s-0.2-0.7-0.2-1.2
		c0-0.5,0.1-1,0.4-1.4c0.2-0.4,0.6-0.7,0.9-1c0.4-0.3,0.8-0.5,1.3-0.6c0.5-0.1,1-0.2,1.5-0.2c1.2,0,2,0.1,2.6,0.4v1.6
		C37.9,53.2,37,53,35.9,53c-0.3,0-0.6,0-0.9,0.1c-0.3,0.1-0.6,0.2-0.8,0.3c-0.2,0.1-0.4,0.3-0.6,0.6s-0.2,0.5-0.2,0.8
		c0,0.3,0.1,0.6,0.2,0.8c0.1,0.2,0.3,0.4,0.5,0.6c0.2,0.2,0.5,0.4,0.8,0.5c0.3,0.2,0.7,0.4,1.1,0.6c0.4,0.2,0.8,0.4,1.2,0.7
		s0.7,0.5,1,0.8c0.3,0.3,0.5,0.6,0.7,0.9c0.2,0.3,0.3,0.7,0.3,1.2c0,0.6-0.1,1.1-0.3,1.5c-0.2,0.4-0.5,0.7-0.9,1
		c-0.4,0.3-0.8,0.4-1.3,0.6C36,64,35.5,64,34.9,64c-0.2,0-0.4,0-0.7,0c-0.3,0-0.6-0.1-0.8-0.1c-0.3-0.1-0.6-0.1-0.8-0.2
		C32.3,63.6,32.1,63.5,31.9,63.4z"/>
	<path class="st2" d="M44.9,64c-1.3,0-2.3-0.4-3-1.2c-0.8-0.8-1.1-1.8-1.1-3.2c0-1.4,0.4-2.5,1.2-3.3c0.8-0.8,1.8-1.2,3.2-1.2
		c1.3,0,2.3,0.4,3,1.2c0.7,0.8,1.1,1.9,1.1,3.2c0,1.4-0.4,2.4-1.1,3.3C47.2,63.6,46.2,64,44.9,64z M45,56.3c-0.9,0-1.6,0.3-2.1,0.9
		c-0.5,0.6-0.8,1.4-0.8,2.5c0,1,0.3,1.8,0.8,2.4c0.5,0.6,1.2,0.9,2.1,0.9c0.9,0,1.6-0.3,2-0.9c0.5-0.6,0.7-1.4,0.7-2.4
		c0-1.1-0.2-1.9-0.7-2.5C46.5,56.6,45.9,56.3,45,56.3z"/>
	<path class="st2" d="M63.4,63.8H62V59c0-0.9-0.1-1.6-0.4-2c-0.3-0.4-0.8-0.6-1.5-0.6c-0.6,0-1.1,0.3-1.5,0.8
		C58.2,57.6,58,58.2,58,59v4.8h-1.4v-5c0-1.7-0.6-2.5-1.9-2.5c-0.6,0-1.1,0.2-1.5,0.8c-0.4,0.5-0.6,1.2-0.6,2v4.8h-1.4v-8.5h1.4v1.3
		h0c0.6-1,1.5-1.5,2.6-1.5c0.6,0,1.1,0.2,1.5,0.5c0.4,0.3,0.7,0.7,0.9,1.3c0.6-1.2,1.6-1.8,2.8-1.8c1.9,0,2.8,1.2,2.8,3.5V63.8z"/>
	<path class="st2" d="M72.8,59.9h-6c0,0.9,0.3,1.7,0.8,2.2c0.5,0.5,1.2,0.8,2,0.8c1,0,1.8-0.3,2.6-0.9v1.3c-0.7,0.5-1.7,0.8-3,0.8
		c-1.2,0-2.1-0.4-2.8-1.2c-0.7-0.8-1-1.9-1-3.3c0-1.3,0.4-2.4,1.1-3.2c0.7-0.8,1.7-1.2,2.8-1.2s2,0.4,2.6,1.1c0.6,0.7,0.9,1.7,0.9,3
		V59.9z M71.4,58.8c0-0.8-0.2-1.4-0.6-1.8c-0.4-0.4-0.9-0.7-1.6-0.7c-0.6,0-1.2,0.2-1.6,0.7c-0.4,0.5-0.7,1.1-0.8,1.8H71.4z"/>
	<path class="st2" d="M78.8,63.8C78.5,63.9,78,64,77.5,64c-1.5,0-2.2-0.8-2.2-2.5v-5h-1.5v-1.2h1.5v-2.1l1.4-0.4v2.5h2.1v1.2h-2.1
		v4.8c0,0.6,0.1,1,0.3,1.2c0.2,0.2,0.5,0.4,1,0.4c0.3,0,0.6-0.1,0.9-0.3V63.8z"/>
	<path class="st2" d="M87.6,63.8h-1.4v-4.9c0-1.8-0.7-2.7-2-2.7c-0.7,0-1.2,0.3-1.7,0.8c-0.5,0.5-0.7,1.2-0.7,2v4.8h-1.4V51.2H82
		v5.5h0c0.7-1.1,1.6-1.6,2.8-1.6c1.9,0,2.9,1.2,2.9,3.5V63.8z"/>
	<path class="st2" d="M90.9,53.2c-0.2,0-0.5-0.1-0.6-0.2c-0.2-0.2-0.3-0.4-0.3-0.6s0.1-0.5,0.3-0.6c0.2-0.2,0.4-0.3,0.6-0.3
		c0.2,0,0.5,0.1,0.6,0.3c0.2,0.2,0.3,0.4,0.3,0.6c0,0.2-0.1,0.5-0.3,0.6C91.4,53.1,91.2,53.2,90.9,53.2z M91.6,63.8h-1.4v-8.5h1.4
		V63.8z"/>
	<path class="st2" d="M101.4,63.8H100V59c0-1.8-0.7-2.7-2-2.7c-0.7,0-1.2,0.3-1.7,0.8c-0.4,0.5-0.7,1.2-0.7,1.9v4.8h-1.4v-8.5h1.4
		v1.4h0c0.6-1.1,1.6-1.6,2.8-1.6c0.9,0,1.6,0.3,2.1,0.9c0.5,0.6,0.7,1.5,0.7,2.6V63.8z"/>
	<path class="st2" d="M111.2,63.2c0,3.1-1.5,4.7-4.5,4.7c-1.1,0-2-0.2-2.8-0.6v-1.4c1,0.5,1.9,0.8,2.7,0.8c2.1,0,3.1-1.1,3.1-3.3
		v-0.9h0c-0.6,1.1-1.6,1.6-2.9,1.6c-1.1,0-1.9-0.4-2.6-1.1c-0.6-0.8-1-1.8-1-3c0-1.4,0.3-2.6,1-3.4c0.7-0.9,1.6-1.3,2.9-1.3
		c1.1,0,2,0.5,2.5,1.4h0v-1.2h1.4V63.2z M109.8,60v-1.3c0-0.7-0.2-1.3-0.7-1.7c-0.5-0.5-1-0.7-1.7-0.7c-0.8,0-1.5,0.3-2,0.9
		c-0.5,0.6-0.7,1.5-0.7,2.6c0,0.9,0.2,1.7,0.7,2.3c0.5,0.6,1.1,0.9,1.8,0.9c0.8,0,1.4-0.3,1.9-0.8S109.8,60.8,109.8,60z"/>
	<path class="st2" d="M129.3,55.3l-2.5,8.5h-1.4l-1.8-6.1c-0.1-0.2-0.1-0.5-0.1-0.8h0c0,0.2-0.1,0.5-0.2,0.8l-1.9,6.1H120l-2.6-8.5
		h1.4l1.8,6.4c0.1,0.2,0.1,0.4,0.1,0.8h0.1c0-0.2,0.1-0.5,0.1-0.8l2-6.4h1.2l1.8,6.4c0.1,0.2,0.1,0.5,0.1,0.8h0.1
		c0-0.2,0.1-0.5,0.1-0.8l1.7-6.4H129.3z"/>
	<path class="st2" d="M137.7,59.9h-6c0,0.9,0.3,1.7,0.8,2.2c0.5,0.5,1.2,0.8,2,0.8c1,0,1.8-0.3,2.6-0.9v1.3c-0.7,0.5-1.7,0.8-3,0.8
		c-1.2,0-2.1-0.4-2.8-1.2c-0.7-0.8-1-1.9-1-3.3c0-1.3,0.4-2.4,1.1-3.2c0.7-0.8,1.7-1.2,2.8-1.2s2,0.4,2.6,1.1c0.6,0.7,0.9,1.7,0.9,3
		V59.9z M136.3,58.8c0-0.8-0.2-1.4-0.6-1.8c-0.4-0.4-0.9-0.7-1.6-0.7c-0.6,0-1.2,0.2-1.6,0.7c-0.4,0.5-0.7,1.1-0.8,1.8H136.3z"/>
	<path class="st2" d="M146.8,63.8h-1.4V59c0-1.8-0.7-2.7-2-2.7c-0.7,0-1.2,0.3-1.7,0.8c-0.4,0.5-0.7,1.2-0.7,1.9v4.8h-1.4v-8.5h1.4
		v1.4h0c0.6-1.1,1.6-1.6,2.8-1.6c0.9,0,1.6,0.3,2.1,0.9c0.5,0.6,0.7,1.5,0.7,2.6V63.8z"/>
	<path class="st2" d="M153.4,63.8c-0.3,0.2-0.7,0.3-1.3,0.3c-1.5,0-2.2-0.8-2.2-2.5v-5h-1.5v-1.2h1.5v-2.1l1.4-0.4v2.5h2.1v1.2h-2.1
		v4.8c0,0.6,0.1,1,0.3,1.2c0.2,0.2,0.5,0.4,1,0.4c0.3,0,0.6-0.1,0.9-0.3V63.8z"/>
	<path class="st2" d="M170.5,55.3l-2.5,8.5h-1.4l-1.8-6.1c-0.1-0.2-0.1-0.5-0.1-0.8h0c0,0.2-0.1,0.5-0.2,0.8l-1.9,6.1h-1.4l-2.6-8.5
		h1.4l1.8,6.4c0.1,0.2,0.1,0.4,0.1,0.8h0.1c0-0.2,0.1-0.5,0.1-0.8l2-6.4h1.2l1.8,6.4c0.1,0.2,0.1,0.5,0.1,0.8h0.1
		c0-0.2,0.1-0.5,0.1-0.8l1.7-6.4H170.5z"/>
	<path class="st2" d="M176.5,56.7c-0.2-0.2-0.6-0.3-1-0.3c-0.6,0-1.1,0.3-1.5,0.8c-0.4,0.5-0.6,1.3-0.6,2.2v4.3h-1.4v-8.5h1.4v1.8h0
		c0.2-0.6,0.5-1.1,0.9-1.4s0.8-0.5,1.3-0.5c0.4,0,0.6,0,0.8,0.1V56.7z"/>
	<path class="st2" d="M181.6,64c-1.3,0-2.3-0.4-3-1.2s-1.1-1.8-1.1-3.2c0-1.4,0.4-2.5,1.2-3.3c0.8-0.8,1.8-1.2,3.2-1.2
		c1.3,0,2.3,0.4,3,1.2c0.7,0.8,1.1,1.9,1.1,3.2c0,1.4-0.4,2.4-1.1,3.3S182.9,64,181.6,64z M181.7,56.3c-0.9,0-1.6,0.3-2.1,0.9
		c-0.5,0.6-0.8,1.4-0.8,2.5c0,1,0.3,1.8,0.8,2.4c0.5,0.6,1.2,0.9,2.1,0.9c0.9,0,1.6-0.3,2-0.9c0.5-0.6,0.7-1.4,0.7-2.4
		c0-1.1-0.2-1.9-0.7-2.5C183.2,56.6,182.6,56.3,181.7,56.3z"/>
	<path class="st2" d="M195,63.8h-1.4V59c0-1.8-0.7-2.7-2-2.7c-0.7,0-1.2,0.3-1.7,0.8c-0.4,0.5-0.7,1.2-0.7,1.9v4.8H188v-8.5h1.4v1.4
		h0c0.6-1.1,1.6-1.6,2.8-1.6c0.9,0,1.6,0.3,2.1,0.9c0.5,0.6,0.7,1.5,0.7,2.6V63.8z"/>
	<path class="st2" d="M204.9,63.2c0,3.1-1.5,4.7-4.5,4.7c-1.1,0-2-0.2-2.8-0.6v-1.4c1,0.5,1.9,0.8,2.7,0.8c2.1,0,3.1-1.1,3.1-3.3
		v-0.9h0c-0.6,1.1-1.6,1.6-2.9,1.6c-1.1,0-1.9-0.4-2.6-1.1c-0.6-0.8-1-1.8-1-3c0-1.4,0.3-2.6,1-3.4c0.7-0.9,1.6-1.3,2.9-1.3
		c1.1,0,2,0.5,2.5,1.4h0v-1.2h1.4V63.2z M203.5,60v-1.3c0-0.7-0.2-1.3-0.7-1.7c-0.5-0.5-1-0.7-1.7-0.7c-0.8,0-1.5,0.3-2,0.9
		c-0.5,0.6-0.7,1.5-0.7,2.6c0,0.9,0.2,1.7,0.7,2.3c0.5,0.6,1.1,0.9,1.8,0.9c0.8,0,1.4-0.3,1.9-0.8C203.3,61.5,203.5,60.8,203.5,60z"
		/>
	<path class="st2" d="M208.7,64c-0.3,0-0.5-0.1-0.7-0.3s-0.3-0.4-0.3-0.6s0.1-0.5,0.3-0.7s0.4-0.3,0.7-0.3c0.2,0,0.5,0.1,0.6,0.3
		s0.3,0.4,0.3,0.7s-0.1,0.5-0.3,0.6S208.9,64,208.7,64z M209.4,51.9l-0.2,8.6h-1.1l-0.1-8.6H209.4z"/>
</g>
</svg>
