<?xml version="1.0" encoding="utf-8"?>
<!-- Generator: Adobe Illustrator 25.3.1, SVG Export Plug-In . SVG Version: 6.00 Build 0)  -->
<svg version="1.1" id="a0d0397e-a7b0-46f4-8bb3-ded3d9f4a3ec"
	 xmlns="http://www.w3.org/2000/svg" xmlns:xlink="http://www.w3.org/1999/xlink" x="0px" y="0px" viewBox="0 0 242 72"
	 style="enable-background:new 0 0 242 72;" xml:space="preserve">
<style type="text/css">
	.st0{enable-background:new    ;}
	.st1{fill:#5916B9;}
	.st2{fill:#1A2040;}
</style>
<g class="st0">
	<path class="st1" d="M58.7,27.2V22c0.9,0.8,1.9,1.4,3,1.8c1.1,0.4,2.2,0.6,3.3,0.6c0.7,0,1.2-0.1,1.7-0.2c0.5-0.1,0.9-0.3,1.2-0.5
		c0.3-0.2,0.6-0.5,0.7-0.7c0.2-0.3,0.2-0.6,0.2-0.9c0-0.5-0.1-0.9-0.4-1.2c-0.3-0.4-0.6-0.7-1.1-1s-1-0.6-1.6-0.9s-1.3-0.6-2-0.9
		c-1.8-0.8-3.1-1.7-4-2.8c-0.9-1.1-1.3-2.4-1.3-3.9c0-1.2,0.2-2.2,0.7-3.1c0.5-0.9,1.1-1.6,2-2.1c0.8-0.6,1.8-1,2.9-1.2
		c1.1-0.3,2.3-0.4,3.5-0.4c1.2,0,2.3,0.1,3.2,0.2c0.9,0.1,1.8,0.4,2.6,0.7v4.8C73,10,72.6,9.8,72.1,9.6S71.2,9.2,70.7,9
		c-0.5-0.1-1-0.2-1.4-0.3c-0.5-0.1-0.9-0.1-1.4-0.1c-0.6,0-1.1,0.1-1.6,0.2c-0.5,0.1-0.9,0.3-1.2,0.5s-0.6,0.4-0.8,0.7
		c-0.2,0.3-0.3,0.6-0.3,1c0,0.4,0.1,0.7,0.3,1c0.2,0.3,0.5,0.6,0.9,0.9c0.4,0.3,0.8,0.5,1.4,0.8c0.5,0.3,1.1,0.5,1.8,0.8
		c0.9,0.4,1.8,0.8,2.5,1.2c0.7,0.4,1.4,0.9,1.9,1.5s0.9,1.2,1.2,1.9c0.3,0.7,0.4,1.5,0.4,2.5c0,1.3-0.2,2.4-0.7,3.2
		c-0.5,0.9-1.2,1.6-2,2.1c-0.8,0.5-1.8,0.9-2.9,1.2c-1.1,0.2-2.3,0.4-3.5,0.4c-1.3,0-2.5-0.1-3.6-0.3C60.5,27.9,59.5,27.6,58.7,27.2
		z"/>
	<path class="st1" d="M93.4,28h-5.1v-2.5h-0.1c-1.3,1.9-2.9,2.9-5,2.9c-3.8,0-5.7-2.3-5.7-6.9v-10h5.1v9.5c0,2.3,0.9,3.5,2.8,3.5
		c0.9,0,1.6-0.3,2.2-1c0.5-0.6,0.8-1.5,0.8-2.6v-9.4h5.1V28z"/>
	<path class="st1" d="M110.2,27.5c-1.1,0.7-2.8,1-5,1c-2.5,0-4.6-0.8-6.2-2.3s-2.4-3.5-2.4-5.9c0-2.8,0.8-5,2.5-6.6
		c1.7-1.6,3.9-2.4,6.7-2.4c1.9,0,3.4,0.3,4.2,0.8v4.3c-1.1-0.8-2.3-1.2-3.6-1.2c-1.5,0-2.6,0.4-3.5,1.3c-0.9,0.9-1.3,2-1.3,3.5
		c0,1.5,0.4,2.6,1.2,3.4c0.8,0.8,1.9,1.2,3.4,1.2c1.3,0,2.5-0.4,3.7-1.2V27.5z"/>
	<path class="st1" d="M126,27.5c-1.1,0.7-2.8,1-5,1c-2.5,0-4.6-0.8-6.2-2.3s-2.4-3.5-2.4-5.9c0-2.8,0.8-5,2.5-6.6
		c1.7-1.6,3.9-2.4,6.7-2.4c1.9,0,3.4,0.3,4.2,0.8v4.3c-1.1-0.8-2.2-1.2-3.6-1.2c-1.5,0-2.6,0.4-3.5,1.3c-0.9,0.9-1.3,2-1.3,3.5
		c0,1.5,0.4,2.6,1.2,3.4c0.8,0.8,1.9,1.2,3.4,1.2c1.3,0,2.5-0.4,3.7-1.2V27.5z"/>
	<path class="st1" d="M144.2,21.2h-10.8c0.2,2.4,1.7,3.6,4.5,3.6c1.8,0,3.4-0.4,4.8-1.3v3.7c-1.5,0.8-3.5,1.2-5.9,1.2
		c-2.7,0-4.7-0.7-6.2-2.2c-1.5-1.5-2.2-3.5-2.2-6.2c0-2.7,0.8-4.9,2.4-6.5s3.5-2.4,5.9-2.4c2.4,0,4.3,0.7,5.6,2.1
		c1.3,1.4,2,3.4,2,5.8V21.2z M139.5,18.1c0-2.4-1-3.5-2.9-3.5c-0.8,0-1.5,0.3-2.1,1c-0.6,0.7-1,1.5-1.1,2.5H139.5z"/>
	<path class="st1" d="M146.1,27.6v-4.1c0.8,0.5,1.7,0.9,2.5,1.1c0.8,0.2,1.6,0.4,2.4,0.4c0.9,0,1.6-0.1,2.1-0.4
		c0.5-0.2,0.8-0.6,0.8-1.1c0-0.3-0.1-0.6-0.4-0.8s-0.5-0.4-0.9-0.6c-0.4-0.2-0.8-0.3-1.2-0.4s-0.9-0.3-1.3-0.4
		c-0.7-0.2-1.2-0.5-1.7-0.8c-0.5-0.3-0.9-0.6-1.3-1c-0.3-0.4-0.6-0.8-0.8-1.3c-0.2-0.5-0.3-1.1-0.3-1.8c0-0.9,0.2-1.7,0.6-2.4
		c0.4-0.7,0.9-1.2,1.6-1.6c0.7-0.4,1.4-0.7,2.3-0.9c0.9-0.2,1.8-0.3,2.7-0.3c0.7,0,1.5,0.1,2.2,0.2c0.8,0.1,1.5,0.3,2.2,0.5v3.9
		c-0.6-0.4-1.3-0.7-2.1-0.8c-0.7-0.2-1.5-0.3-2.2-0.3c-0.3,0-0.6,0-0.9,0.1c-0.3,0.1-0.6,0.1-0.8,0.3c-0.2,0.1-0.4,0.3-0.5,0.4
		c-0.1,0.2-0.2,0.4-0.2,0.6c0,0.3,0.1,0.6,0.3,0.8s0.4,0.4,0.8,0.6c0.3,0.2,0.7,0.3,1,0.4c0.4,0.1,0.8,0.2,1.1,0.4
		c0.7,0.2,1.3,0.5,1.8,0.8s1,0.6,1.4,1c0.4,0.4,0.7,0.8,0.9,1.3c0.2,0.5,0.3,1.1,0.3,1.8c0,1-0.2,1.8-0.6,2.5
		c-0.4,0.7-1,1.3-1.7,1.7c-0.7,0.4-1.5,0.8-2.4,1c-0.9,0.2-1.9,0.3-2.9,0.3C149.4,28.5,147.7,28.2,146.1,27.6z"/>
	<path class="st1" d="M160.7,27.6v-4.1c0.8,0.5,1.7,0.9,2.5,1.1c0.8,0.2,1.6,0.4,2.4,0.4c0.9,0,1.6-0.1,2.1-0.4
		c0.5-0.2,0.8-0.6,0.8-1.1c0-0.3-0.1-0.6-0.4-0.8s-0.5-0.4-0.9-0.6c-0.4-0.2-0.8-0.3-1.2-0.4s-0.9-0.3-1.3-0.4
		c-0.7-0.2-1.2-0.5-1.7-0.8c-0.5-0.3-0.9-0.6-1.3-1c-0.3-0.4-0.6-0.8-0.8-1.3c-0.2-0.5-0.3-1.1-0.3-1.8c0-0.9,0.2-1.7,0.6-2.4
		c0.4-0.7,0.9-1.2,1.6-1.6c0.7-0.4,1.4-0.7,2.3-0.9c0.9-0.2,1.8-0.3,2.7-0.3c0.7,0,1.5,0.1,2.2,0.2c0.8,0.1,1.5,0.3,2.2,0.5v3.9
		c-0.6-0.4-1.3-0.7-2.1-0.8c-0.7-0.2-1.5-0.3-2.2-0.3c-0.3,0-0.6,0-0.9,0.1c-0.3,0.1-0.6,0.1-0.8,0.3c-0.2,0.1-0.4,0.3-0.5,0.4
		c-0.1,0.2-0.2,0.4-0.2,0.6c0,0.3,0.1,0.6,0.3,0.8s0.4,0.4,0.8,0.6c0.3,0.2,0.7,0.3,1,0.4c0.4,0.1,0.8,0.2,1.1,0.4
		c0.7,0.2,1.3,0.5,1.8,0.8s1,0.6,1.4,1c0.4,0.4,0.7,0.8,0.9,1.3c0.2,0.5,0.3,1.1,0.3,1.8c0,1-0.2,1.8-0.6,2.5
		c-0.4,0.7-1,1.3-1.7,1.7c-0.7,0.4-1.5,0.8-2.4,1c-0.9,0.2-1.9,0.3-2.9,0.3C163.9,28.5,162.2,28.2,160.7,27.6z"/>
	<path class="st1" d="M179.5,28.4c-0.9,0-1.6-0.3-2.1-0.8c-0.6-0.5-0.8-1.2-0.8-1.9c0-0.8,0.3-1.4,0.8-1.9c0.6-0.5,1.3-0.7,2.1-0.7
		c0.9,0,1.6,0.2,2.1,0.8c0.5,0.5,0.8,1.1,0.8,1.9c0,0.8-0.3,1.4-0.8,1.9C181.1,28.2,180.4,28.4,179.5,28.4z M182.2,4.9l-0.6,15.9
		h-4.1l-0.6-15.9H182.2z"/>
</g>
<g class="st0">
	<path class="st2" d="M24.5,64V52.1h3.4c1,0,1.8,0.3,2.4,0.8c0.6,0.5,0.9,1.2,0.9,2c0,0.7-0.2,1.3-0.5,1.8c-0.4,0.5-0.9,0.9-1.5,1.1
		v0c0.8,0.1,1.4,0.4,1.9,0.9s0.7,1.2,0.7,2c0,1-0.4,1.8-1.1,2.5S29.1,64,28,64H24.5z M25.9,53.4v3.8h1.4c0.8,0,1.4-0.2,1.8-0.6
		c0.4-0.4,0.7-0.9,0.7-1.6c0-1.2-0.8-1.7-2.3-1.7H25.9z M25.9,58.5v4.3h1.9c0.8,0,1.5-0.2,1.9-0.6c0.5-0.4,0.7-0.9,0.7-1.6
		c0-1.4-1-2.1-2.9-2.1H25.9z"/>
	<path class="st2" d="M40.9,64h-1.4v-1.3h0c-0.6,1-1.4,1.5-2.6,1.5c-2,0-3-1.2-3-3.6v-5.1h1.4v4.9c0,1.8,0.7,2.7,2.1,2.7
		c0.7,0,1.2-0.2,1.6-0.7c0.4-0.5,0.6-1.1,0.6-1.9v-4.9h1.4V64z"/>
	<path class="st2" d="M50.9,63.4c0,3.1-1.5,4.7-4.5,4.7c-1.1,0-2-0.2-2.8-0.6v-1.4c1,0.5,1.9,0.8,2.7,0.8c2.1,0,3.1-1.1,3.1-3.3
		v-0.9h0c-0.6,1.1-1.6,1.6-2.9,1.6c-1.1,0-1.9-0.4-2.6-1.1c-0.6-0.8-1-1.8-1-3c0-1.4,0.3-2.6,1-3.4c0.7-0.9,1.6-1.3,2.9-1.3
		c1.1,0,2,0.5,2.5,1.4h0v-1.2h1.4V63.4z M49.6,60.2V59c0-0.7-0.2-1.3-0.7-1.7c-0.5-0.5-1-0.7-1.7-0.7c-0.8,0-1.5,0.3-2,0.9
		c-0.5,0.6-0.7,1.5-0.7,2.6c0,0.9,0.2,1.7,0.7,2.3c0.5,0.6,1.1,0.9,1.8,0.9c0.8,0,1.4-0.3,1.9-0.8C49.3,61.7,49.6,61.1,49.6,60.2z"
		/>
	<path class="st2" d="M57.8,63.7v-1.5c0.7,0.5,1.6,0.8,2.4,0.8c1.2,0,1.8-0.4,1.8-1.2c0-0.2-0.1-0.4-0.2-0.6
		c-0.1-0.2-0.2-0.3-0.4-0.4c-0.2-0.1-0.4-0.2-0.6-0.3c-0.2-0.1-0.5-0.2-0.8-0.3c-0.4-0.1-0.7-0.3-1-0.5c-0.3-0.2-0.5-0.3-0.7-0.5
		c-0.2-0.2-0.3-0.4-0.4-0.7c-0.1-0.2-0.1-0.5-0.1-0.9c0-0.4,0.1-0.8,0.3-1.1c0.2-0.3,0.4-0.6,0.7-0.8c0.3-0.2,0.7-0.4,1-0.5
		c0.4-0.1,0.8-0.2,1.2-0.2c0.7,0,1.4,0.1,2,0.4v1.4c-0.6-0.4-1.3-0.6-2.2-0.6c-0.3,0-0.5,0-0.7,0.1c-0.2,0.1-0.4,0.1-0.5,0.2
		c-0.1,0.1-0.3,0.2-0.3,0.4c-0.1,0.1-0.1,0.3-0.1,0.5c0,0.2,0,0.4,0.1,0.6c0.1,0.2,0.2,0.3,0.4,0.4c0.2,0.1,0.3,0.2,0.6,0.3
		c0.2,0.1,0.5,0.2,0.8,0.3c0.4,0.1,0.7,0.3,1,0.4s0.6,0.3,0.8,0.5c0.2,0.2,0.4,0.4,0.5,0.7c0.1,0.2,0.2,0.5,0.2,0.9
		c0,0.4-0.1,0.8-0.3,1.1c-0.2,0.3-0.4,0.6-0.7,0.8c-0.3,0.2-0.7,0.4-1.1,0.5s-0.8,0.1-1.3,0.1C59.2,64.2,58.5,64.1,57.8,63.7z"/>
	<path class="st2" d="M72.4,64h-1.4v-1.3h0c-0.6,1-1.4,1.5-2.6,1.5c-2,0-3-1.2-3-3.6v-5.1h1.4v4.9c0,1.8,0.7,2.7,2.1,2.7
		c0.7,0,1.2-0.2,1.6-0.7c0.4-0.5,0.6-1.1,0.6-1.9v-4.9h1.4V64z"/>
	<path class="st2" d="M81,63.7c-0.7,0.4-1.4,0.6-2.3,0.6c-1.2,0-2.2-0.4-2.9-1.2c-0.7-0.8-1.1-1.8-1.1-3.1c0-1.4,0.4-2.5,1.2-3.4
		c0.8-0.8,1.9-1.3,3.2-1.3c0.7,0,1.4,0.1,2,0.4v1.4c-0.6-0.4-1.3-0.7-2-0.7c-0.9,0-1.6,0.3-2.1,0.9c-0.6,0.6-0.8,1.4-0.8,2.5
		c0,1,0.3,1.8,0.8,2.4c0.5,0.6,1.2,0.9,2.1,0.9c0.7,0,1.4-0.2,2.1-0.7V63.7z"/>
	<path class="st2" d="M88.8,63.7c-0.7,0.4-1.4,0.6-2.3,0.6c-1.2,0-2.2-0.4-2.9-1.2c-0.7-0.8-1.1-1.8-1.1-3.1c0-1.4,0.4-2.5,1.2-3.4
		c0.8-0.8,1.9-1.3,3.2-1.3c0.7,0,1.4,0.1,2,0.4v1.4c-0.6-0.4-1.3-0.7-2-0.7c-0.9,0-1.6,0.3-2.1,0.9c-0.6,0.6-0.8,1.4-0.8,2.5
		c0,1,0.3,1.8,0.8,2.4c0.5,0.6,1.2,0.9,2.1,0.9c0.7,0,1.4-0.2,2.1-0.7V63.7z"/>
	<path class="st2" d="M97.7,60.1h-6c0,0.9,0.3,1.7,0.8,2.2c0.5,0.5,1.2,0.8,2,0.8c1,0,1.8-0.3,2.6-0.9v1.3c-0.7,0.5-1.7,0.8-3,0.8
		c-1.2,0-2.1-0.4-2.8-1.2c-0.7-0.8-1-1.9-1-3.3c0-1.3,0.4-2.4,1.1-3.2c0.7-0.8,1.7-1.2,2.8-1.2s2,0.4,2.6,1.1c0.6,0.7,0.9,1.7,0.9,3
		V60.1z M96.3,59c0-0.8-0.2-1.4-0.6-1.8c-0.4-0.4-0.9-0.7-1.6-0.7c-0.6,0-1.2,0.2-1.6,0.7c-0.4,0.5-0.7,1.1-0.8,1.8H96.3z"/>
	<path class="st2" d="M99.3,63.7v-1.5c0.7,0.5,1.6,0.8,2.4,0.8c1.2,0,1.8-0.4,1.8-1.2c0-0.2-0.1-0.4-0.2-0.6
		c-0.1-0.2-0.2-0.3-0.4-0.4c-0.2-0.1-0.4-0.2-0.6-0.3c-0.2-0.1-0.5-0.2-0.8-0.3c-0.4-0.1-0.7-0.3-1-0.5c-0.3-0.2-0.5-0.3-0.7-0.5
		c-0.2-0.2-0.3-0.4-0.4-0.7c-0.1-0.2-0.1-0.5-0.1-0.9c0-0.4,0.1-0.8,0.3-1.1c0.2-0.3,0.4-0.6,0.7-0.8c0.3-0.2,0.7-0.4,1-0.5
		c0.4-0.1,0.8-0.2,1.2-0.2c0.7,0,1.4,0.1,2,0.4v1.4c-0.6-0.4-1.3-0.6-2.2-0.6c-0.3,0-0.5,0-0.7,0.1c-0.2,0.1-0.4,0.1-0.5,0.2
		c-0.1,0.1-0.3,0.2-0.3,0.4c-0.1,0.1-0.1,0.3-0.1,0.5c0,0.2,0,0.4,0.1,0.6c0.1,0.2,0.2,0.3,0.4,0.4c0.2,0.1,0.3,0.2,0.6,0.3
		c0.2,0.1,0.5,0.2,0.8,0.3c0.4,0.1,0.7,0.3,1,0.4s0.6,0.3,0.8,0.5c0.2,0.2,0.4,0.4,0.5,0.7c0.1,0.2,0.2,0.5,0.2,0.9
		c0,0.4-0.1,0.8-0.3,1.1c-0.2,0.3-0.4,0.6-0.7,0.8c-0.3,0.2-0.7,0.4-1.1,0.5s-0.8,0.1-1.3,0.1C100.7,64.2,99.9,64.1,99.3,63.7z"/>
	<path class="st2" d="M106.5,63.7v-1.5c0.7,0.5,1.6,0.8,2.4,0.8c1.2,0,1.8-0.4,1.8-1.2c0-0.2-0.1-0.4-0.2-0.6
		c-0.1-0.2-0.2-0.3-0.4-0.4c-0.2-0.1-0.4-0.2-0.6-0.3c-0.2-0.1-0.5-0.2-0.8-0.3c-0.4-0.1-0.7-0.3-1-0.5c-0.3-0.2-0.5-0.3-0.7-0.5
		c-0.2-0.2-0.3-0.4-0.4-0.7c-0.1-0.2-0.1-0.5-0.1-0.9c0-0.4,0.1-0.8,0.3-1.1c0.2-0.3,0.4-0.6,0.7-0.8c0.3-0.2,0.7-0.4,1-0.5
		c0.4-0.1,0.8-0.2,1.2-0.2c0.7,0,1.4,0.1,2,0.4v1.4c-0.6-0.4-1.3-0.6-2.2-0.6c-0.3,0-0.5,0-0.7,0.1c-0.2,0.1-0.4,0.1-0.5,0.2
		c-0.1,0.1-0.3,0.2-0.3,0.4c-0.1,0.1-0.1,0.3-0.1,0.5c0,0.2,0,0.4,0.1,0.6c0.1,0.2,0.2,0.3,0.4,0.4c0.2,0.1,0.3,0.2,0.6,0.3
		c0.2,0.1,0.5,0.2,0.8,0.3c0.4,0.1,0.7,0.3,1,0.4s0.6,0.3,0.8,0.5c0.2,0.2,0.4,0.4,0.5,0.7c0.1,0.2,0.2,0.5,0.2,0.9
		c0,0.4-0.1,0.8-0.3,1.1c-0.2,0.3-0.4,0.6-0.7,0.8c-0.3,0.2-0.7,0.4-1.1,0.5s-0.8,0.1-1.3,0.1C107.9,64.2,107.1,64.1,106.5,63.7z"/>
	<path class="st2" d="M118.4,52.7c-0.3-0.1-0.6-0.2-0.9-0.2c-1,0-1.4,0.6-1.4,1.8v1.3h2v1.2h-2V64h-1.4v-7.3h-1.5v-1.2h1.5v-1.4
		c0-0.9,0.3-1.6,0.8-2.1s1.2-0.8,1.9-0.8c0.4,0,0.7,0,1,0.1V52.7z"/>
	<path class="st2" d="M126.4,64H125v-1.3h0c-0.6,1-1.4,1.5-2.6,1.5c-2,0-3-1.2-3-3.6v-5.1h1.4v4.9c0,1.8,0.7,2.7,2.1,2.7
		c0.7,0,1.2-0.2,1.6-0.7c0.4-0.5,0.6-1.1,0.6-1.9v-4.9h1.4V64z"/>
	<path class="st2" d="M130.5,64h-1.4V51.5h1.4V64z"/>
	<path class="st2" d="M134.6,64h-1.4V51.5h1.4V64z"/>
	<path class="st2" d="M144.2,55.5l-3.9,9.9c-0.7,1.8-1.7,2.6-2.9,2.6c-0.4,0-0.7,0-0.9-0.1v-1.2c0.3,0.1,0.6,0.1,0.8,0.1
		c0.7,0,1.2-0.4,1.5-1.2l0.7-1.6l-3.3-8.5h1.5l2.3,6.5c0,0.1,0.1,0.3,0.2,0.6h0c0-0.1,0.1-0.3,0.2-0.6l2.4-6.6H144.2z"/>
	<path class="st2" d="M154.7,56.9c-0.2-0.2-0.6-0.3-1-0.3c-0.6,0-1.1,0.3-1.5,0.8c-0.4,0.5-0.6,1.3-0.6,2.2V64h-1.4v-8.5h1.4v1.8h0
		c0.2-0.6,0.5-1.1,0.9-1.4s0.8-0.5,1.3-0.5c0.4,0,0.6,0,0.8,0.1V56.9z"/>
	<path class="st2" d="M163,60.1h-6c0,0.9,0.3,1.7,0.8,2.2c0.5,0.5,1.2,0.8,2,0.8c1,0,1.8-0.3,2.6-0.9v1.3c-0.7,0.5-1.7,0.8-3,0.8
		c-1.2,0-2.1-0.4-2.8-1.2c-0.7-0.8-1-1.9-1-3.3c0-1.3,0.4-2.4,1.1-3.2c0.8-0.8,1.7-1.2,2.8-1.2s2,0.4,2.6,1.1c0.6,0.7,0.9,1.7,0.9,3
		V60.1z M161.6,59c0-0.8-0.2-1.4-0.6-1.8c-0.4-0.4-0.9-0.7-1.6-0.7c-0.6,0-1.2,0.2-1.6,0.7c-0.4,0.5-0.7,1.1-0.8,1.8H161.6z"/>
	<path class="st2" d="M166.5,62.8L166.5,62.8l0,5.1h-1.4V55.5h1.4V57h0c0.7-1.1,1.6-1.7,2.9-1.7c1.1,0,2,0.4,2.6,1.1
		c0.6,0.8,0.9,1.8,0.9,3.1c0,1.4-0.3,2.6-1,3.4c-0.7,0.9-1.6,1.3-2.8,1.3C167.9,64.2,167.1,63.8,166.5,62.8z M166.4,59.4v1.2
		c0,0.7,0.2,1.3,0.7,1.8c0.5,0.5,1,0.7,1.7,0.7c0.8,0,1.5-0.3,1.9-0.9c0.5-0.6,0.7-1.5,0.7-2.6c0-0.9-0.2-1.7-0.7-2.2
		c-0.4-0.5-1-0.8-1.8-0.8c-0.8,0-1.4,0.3-1.9,0.8C166.7,57.9,166.4,58.6,166.4,59.4z"/>
	<path class="st2" d="M178.6,64.2c-1.3,0-2.3-0.4-3-1.2c-0.8-0.8-1.1-1.8-1.1-3.2c0-1.4,0.4-2.5,1.2-3.3c0.8-0.8,1.8-1.2,3.2-1.2
		c1.3,0,2.3,0.4,3,1.2c0.7,0.8,1.1,1.9,1.1,3.2c0,1.4-0.4,2.4-1.2,3.3C180.9,63.8,179.9,64.2,178.6,64.2z M178.7,56.5
		c-0.9,0-1.6,0.3-2.1,0.9c-0.5,0.6-0.8,1.4-0.8,2.5c0,1,0.3,1.8,0.8,2.4c0.5,0.6,1.2,0.9,2.1,0.9c0.9,0,1.6-0.3,2-0.9
		c0.5-0.6,0.7-1.4,0.7-2.4c0-1.1-0.2-1.9-0.7-2.5C180.3,56.8,179.6,56.5,178.7,56.5z"/>
	<path class="st2" d="M189.5,56.9c-0.2-0.2-0.6-0.3-1-0.3c-0.6,0-1.1,0.3-1.5,0.8c-0.4,0.5-0.6,1.3-0.6,2.2V64H185v-8.5h1.4v1.8h0
		c0.2-0.6,0.5-1.1,0.9-1.4s0.8-0.5,1.3-0.5c0.4,0,0.6,0,0.8,0.1V56.9z"/>
	<path class="st2" d="M194.9,64c-0.3,0.2-0.7,0.3-1.3,0.3c-1.5,0-2.2-0.8-2.2-2.5v-5h-1.5v-1.2h1.5v-2.1l1.4-0.4v2.5h2.1v1.2h-2.1
		v4.8c0,0.6,0.1,1,0.3,1.2c0.2,0.2,0.5,0.4,1,0.4c0.3,0,0.6-0.1,0.9-0.3V64z"/>
	<path class="st2" d="M203.5,60.1h-6c0,0.9,0.3,1.7,0.8,2.2c0.5,0.5,1.2,0.8,2,0.8c1,0,1.8-0.3,2.6-0.9v1.3c-0.7,0.5-1.7,0.8-3,0.8
		c-1.2,0-2.1-0.4-2.8-1.2c-0.7-0.8-1-1.9-1-3.3c0-1.3,0.4-2.4,1.1-3.2c0.8-0.8,1.7-1.2,2.8-1.2c1.1,0,2,0.4,2.6,1.1
		c0.6,0.7,0.9,1.7,0.9,3V60.1z M202.1,59c0-0.8-0.2-1.4-0.6-1.8c-0.4-0.4-0.9-0.7-1.6-0.7c-0.6,0-1.2,0.2-1.6,0.7
		c-0.4,0.5-0.7,1.1-0.8,1.8H202.1z"/>
	<path class="st2" d="M212.8,64h-1.4v-1.4h0c-0.6,1.1-1.6,1.6-2.9,1.6c-1.1,0-1.9-0.4-2.6-1.1c-0.6-0.8-1-1.8-1-3.1
		c0-1.4,0.4-2.5,1.1-3.4c0.7-0.8,1.7-1.3,2.8-1.3c1.2,0,2,0.5,2.5,1.4h0v-5.3h1.4V64z M211.5,60.2V59c0-0.7-0.2-1.3-0.7-1.7
		c-0.5-0.5-1-0.7-1.7-0.7c-0.8,0-1.5,0.3-2,0.9c-0.5,0.6-0.7,1.5-0.7,2.5c0,1,0.2,1.8,0.7,2.3c0.5,0.6,1.1,0.9,1.8,0.9
		c0.8,0,1.4-0.3,1.8-0.8C211.2,61.7,211.5,61,211.5,60.2z"/>
	<path class="st2" d="M216.6,64.2c-0.3,0-0.5-0.1-0.7-0.3c-0.2-0.2-0.3-0.4-0.3-0.6s0.1-0.5,0.3-0.7c0.2-0.2,0.4-0.3,0.7-0.3
		c0.2,0,0.5,0.1,0.6,0.3c0.2,0.2,0.3,0.4,0.3,0.7s-0.1,0.5-0.3,0.6C217.1,64.1,216.9,64.2,216.6,64.2z M217.3,52.1l-0.2,8.5h-1.1
		l-0.2-8.5H217.3z"/>
</g>
</svg>
