<svg xmlns="http://www.w3.org/2000/svg" width="133" height="38" viewBox="0 0 133 38">
  <g id="Group_2338" data-name="Group 2338" transform="translate(17071 13625)">
    <g id="Group_2321" data-name="Group 2321" transform="translate(-18007 -14435)">
      <rect id="Rectangle_2706" data-name="Rectangle 2706" width="133" height="38" rx="4" transform="translate(936 810)"/>
      <g id="Group_2321-2" data-name="Group 2321" transform="translate(945.386 817)">
        <path id="Path_735" data-name="Path 735" d="M287.462,239.89a2.31,2.31,0,0,1,.023.237v11.017l-12.64.215c0-.1-.011-.177-.011-.254q0-4.222,0-8.446c0-.185.043-.255.235-.294q5.369-1.062,10.737-2.14c.523-.1,1.042-.223,1.563-.335Z" transform="translate(-265.225 -239.89)" fill="#fff"/>
        <path id="Path_736" data-name="Path 736" d="M287.425,444.249c-1.717-.34-3.4-.676-5.085-1.012l-7.357-1.472c-.143-.028-.2-.068-.2-.224q.007-4.308,0-8.616c0-.039.005-.077.011-.145l12.63.219Z" transform="translate(-265.178 -419.672)" fill="#fff"/>
        <path id="Path_737" data-name="Path 737" d="M141.929,290.962l-7.759.13V283.9l7.759-1.548Z" transform="translate(-134.124 -279.465)" fill="#fff"/>
        <path id="Path_738" data-name="Path 738" d="M133.995,430.48l7.782.13v8.612c-.68-.136-1.34-.264-2-.4l-5.449-1.087c-.374-.076-.328.017-.328-.408V430.48Z" transform="translate(-133.96 -417.528)" fill="#fff"/>
      </g>
      <text id="Get_it_from" data-name="Get it from" transform="translate(996 825)" fill="#fff" font-size="8" font-family="Usual-Regular, Usual"><tspan x="-20.472" y="0">Get it from</tspan></text>
      <text id="Windows_Store" data-name="Windows Store" transform="translate(1020 839)" fill="#fff" font-size="12" font-family="Usual-Regular, Usual"><tspan x="-44.094" y="0">Windows Store</tspan></text>
    </g>
  </g>
</svg>
