<svg xmlns="http://www.w3.org/2000/svg" viewBox="0 0 27.91 24"><defs><style>.cls-1,.cls-2{fill:none;}.cls-2{stroke:#231f20;stroke-miterlimit:10;stroke-width:2px;}.cls-3{fill:#231f20;}</style></defs><g id="Layer_2" data-name="Layer 2"><g id="Layer_1-2" data-name="Layer 1"><rect class="cls-1" width="24" height="24"/><rect class="cls-1" x="3.91" width="24" height="24"/><path class="cls-2" d="M11.7,17.59,6.43,12.31V10.9L9.66,7.66a17.08,17.08,0,0,1,10.93-5h0a.67.67,0,0,1,.72.72h0a17.08,17.08,0,0,1-5,10.93l-3.24,3.24Z"/><line class="cls-2" x1="4.36" y1="13.98" x2="10.03" y2="19.65"/><path class="cls-2" d="M17.86,16.09l-3.42,4.27a2.29,2.29,0,0,1-3.4.19l-.25-.25"/><path class="cls-2" d="M7.88,6.11,3.61,9.53a2.28,2.28,0,0,0-.18,3.4l.29.3"/><line class="cls-2" x1="6.21" y1="17.8" x2="3.38" y2="20.63"/><line class="cls-2" x1="4.11" y1="15.69" x2="2.69" y2="17.1"/><line class="cls-2" x1="8.3" y1="19.88" x2="6.88" y2="21.3"/><circle class="cls-3" cx="14.65" cy="9.36" r="2.02"/></g></g></svg>