<?xml version="1.0" encoding="utf-8"?>
<!-- Generator: Adobe Illustrator 24.0.1, SVG Export Plug-In . SVG Version: 6.00 Build 0)  -->
<svg version="1.1" id="Layer_1" xmlns="http://www.w3.org/2000/svg" xmlns:xlink="http://www.w3.org/1999/xlink" x="0px" y="0px"
	 viewBox="0 0 24 24" style="enable-background:new 0 0 24 24;" xml:space="preserve">
<style type="text/css">
	.st0{fill:none;}
	.st1{fill:none;stroke:#000000;stroke-width:2;stroke-miterlimit:10;}
	.st2{fill:none;stroke:#010101;stroke-width:2;stroke-miterlimit:10;}
	.st3{fill:none;stroke:#010101;stroke-width:2;stroke-linejoin:round;stroke-miterlimit:10;}
	.st4{fill:none;stroke:#000000;stroke-width:2;stroke-linejoin:round;stroke-miterlimit:10;}
</style>
<g>
	<path class="st2" d="M16,12v4l3,2l3-2.4l0-3.6c0-1.4-0.3-2.7-0.8-3.9S20,5.8,19.1,4.9s-2-1.6-3.2-2.1S13.4,2,12,2
		c-1.4,0-2.7,0.3-3.9,0.8S5.8,4,4.9,4.9s-1.6,2-2.1,3.2S2,10.6,2,12c0,1.4,0.3,2.7,0.8,3.9c0.5,1.2,1.2,2.3,2.1,3.2s2,1.6,3.2,2.1
		S10.6,22,12,22c1.4,0,2.7-0.3,3.9-0.8"/>
	<circle class="st3" cx="12" cy="12" r="4"/>
	<rect y="0" class="st0" width="24" height="24"/>
	<rect class="st0" width="24" height="24"/>
</g>
</svg>
