<svg id="b1d46b4b-65ae-4be3-93c2-d6d31b184bba" data-name="Layer 1" xmlns="http://www.w3.org/2000/svg" width="40" height="40" viewBox="0 0 40 40"><path id="af1914c3-0024-4579-b5dd-958fba800624" data-name="Path 140" d="M26.93,18.33a7.23,7.23,0,0,0-5.29-5.42v3.51H18.37V12.91a7.23,7.23,0,0,0-5.29,5.42H16.5v3.34H13.08a7.23,7.23,0,0,0,5.29,5.42V23.58h3.27v3.51a7.23,7.23,0,0,0,5.29-5.42H23.5V18.33Z" transform="translate(0 0)" fill="#18d992"/><path id="f3ac570d-1519-4fd2-b1c5-756d6bd6b3f7" data-name="Path 141" d="M21.63,9.5a10.54,10.54,0,0,1,8.62,8.83h3.63V14.42l5.64-5.78a1.7,1.7,0,0,0,0-2.37L33.4,0,31.09,2.37l5,5.09-3.81,3.9-5-5.09a1.61,1.61,0,0,0-1.15-.49H21.64Z" transform="translate(0 0)" fill="#18d992"/><path id="abc8ce55-71d7-4856-b48f-8446336b0200" data-name="Path 142" d="M33.88,25.58V21.67H30.25a10.52,10.52,0,0,1-8.62,8.83v3.72h4.49a1.64,1.64,0,0,0,1.16-.49l5-5.09,3.82,3.91-5,5.09L33.4,40l6.12-6.27a1.7,1.7,0,0,0,0-2.37Z" transform="translate(0 0)" fill="#18d992"/><path id="ac4f0a87-4228-4f1d-9b67-1c6d78fb332b" data-name="Path 143" d="M18.37,30.5a10.52,10.52,0,0,1-8.62-8.83H6.12v3.91L.48,31.36a1.7,1.7,0,0,0,0,2.37L6.6,40l2.31-2.36-5-5.09,3.82-3.91,5,5.09a1.64,1.64,0,0,0,1.16.49h4.49Z" transform="translate(0 0)" fill="#18d992"/><path id="a4fca0ee-7f3c-4d61-b230-b085d8e85759" data-name="Path 144" d="M6.12,14.42v3.91H9.75A10.54,10.54,0,0,1,18.37,9.5V5.78H13.88a1.64,1.64,0,0,0-1.16.49l-5,5.09L3.94,7.46l5-5.09L6.6,0,.48,6.27a1.69,1.69,0,0,0,0,2.36Z" transform="translate(0 0)" fill="#18d992"/></svg>