<svg id="dark_mode_on" xmlns="http://www.w3.org/2000/svg" width="24" height="24" viewBox="0 0 24 24">
  <g id="Layer_3" data-name="Layer 3">
    <rect id="Rectangle_2867" data-name="Rectangle 2867" width="24" height="24" fill="none"/>
  </g>
  <g id="Layer_2" data-name="Layer 2">
    <path id="Path_892" data-name="Path 892" d="M12.69,20.52a9.35,9.35,0,0,1-1.57-.14,8.54,8.54,0,0,1-6.89-7.3A8.45,8.45,0,0,1,6.05,6.64a8.57,8.57,0,0,1,5.89-3.15A1.13,1.13,0,0,1,13,5.21a6.5,6.5,0,0,0-1,3.43c0,3.54,3.63,6.41,6.74,6.52a1.12,1.12,0,0,1,.88,1.78,8.47,8.47,0,0,1-6.93,3.58ZM10.49,5.84A6.65,6.65,0,0,0,7.6,7.89,6.539,6.539,0,0,0,17,16.91c-3.57-.92-7-4.21-7-8.27a8.32,8.32,0,0,1,.49-2.8Zm8.19,11.32ZM12.12,5.48Zm-.83-1.33Z" fill="#1a2040"/>
  </g>
</svg>
