<svg xmlns="http://www.w3.org/2000/svg" width="33.762" height="33.758" viewBox="-6825.363 -3186.4 33.762 33.758"><g data-name="Group 3614"><path d="M-6818.648-3163.614a4.125 4.125 0 0 0-2.906 1.286c-1.032 1.084-1.622 3.678-1.934 5.662l-.448 2.86 2.834-.592c1.966-.408 4.524-1.124 5.558-2.208a4.155 4.155 0 0 0-.142-5.864c-.804-.762-1.804-1.132-2.962-1.144m-.154 4.398c.056-.168.108-.29.146-.354l.21-.004a.148.148 0 0 1 .03.17c-.09.058-.22.12-.386.188" fill="#7a2ee6" fill-rule="evenodd" data-name="Path 2774"/><path d="M-6793.6-3186.4c-1.017 0-10.027.1-13.543 3.616-.638.638-1.39 1.514-2.188 2.508l-11.358 1.624-4.674 9.34 9.554 1.912 5.206 5.206 1.912 9.552 9.344-4.67 1.622-11.36c.996-.798 1.87-1.552 2.506-2.188 3.516-3.516 3.618-12.526 3.618-13.54v-2h-2Zm-24.449 11.412 5.31-.76a199.208 199.208 0 0 0-2.994 4.284l-3.708-.742 1.392-2.782Zm15.038 15.036-2.786 1.392-.742-3.708a215.4 215.4 0 0 0 4.286-2.996l-.758 5.312Zm4.964-13.736c-2.174 2.174-7.904 6.174-10.374 7.864l-.17-.018-3.57-3.568-.016-.17c1.688-2.47 5.686-8.198 7.862-10.376 1.434-1.434 5.456-2.144 8.636-2.366-.224 3.178-.934 7.2-2.368 8.634" fill="#7a2ee6" fill-rule="evenodd" data-name="Path 2775"/></g></svg>