<svg xmlns="http://www.w3.org/2000/svg" width="40" height="40" viewBox="0 0 40 40">
  <g id="Group_3853" data-name="Group 3853" transform="translate(-1434.25 -230)">
    <g id="Group_3725" data-name="Group 3725" transform="translate(21931.25 5432)">
      <rect id="Rectangle_3164" data-name="Rectangle 3164" width="40" height="40" transform="translate(-20497 -5202)" fill="none"/>
      <path id="Path_2799" data-name="Path 2799" d="M8.44,15.193a3.437,3.437,0,0,0-2.422,1.072c-.86.9-1.352,3.065-1.612,4.718l-.373,2.383,2.362-.493c1.638-.34,3.77-.937,4.632-1.84a3.463,3.463,0,0,0-.118-4.887,3.514,3.514,0,0,0-2.468-.953m-.128,3.665a1.7,1.7,0,0,1,.122-.3l.175,0a.123.123,0,0,1,.025.142,2.078,2.078,0,0,1-.322.157" transform="translate(-20494.313 -5191.871)" fill="#1f0237"/>
      <path id="Path_2800" data-name="Path 2800" d="M29.787,3.8c-.847,0-8.355.083-11.285,3.013A26.944,26.944,0,0,0,16.679,8.9L7.214,10.257l-3.9,7.783,7.962,1.593,4.338,4.338,1.593,7.96L25,28.04l1.352-9.467a26.618,26.618,0,0,0,2.088-1.823c2.93-2.93,3.015-10.438,3.015-11.283V3.8ZM9.414,13.31l4.425-.633c-1,1.393-1.893,2.683-2.495,3.57l-3.09-.618ZM21.946,25.84,19.624,27l-.618-3.09c.887-.6,2.178-1.5,3.572-2.5Zm4.137-11.447a83.473,83.473,0,0,1-8.645,6.553l-.142-.015-2.975-2.973-.013-.142A83.362,83.362,0,0,1,20.859,9.17c1.195-1.2,4.547-1.787,7.2-1.972-.187,2.648-.778,6-1.973,7.2" transform="translate(-20494.787 -5199.467)" fill="#1f0237"/>
    </g>
  </g>
</svg>
