<svg xmlns="http://www.w3.org/2000/svg" width="13.984" height="14" viewBox="453 494 13.984 14"><g data-name="Plans"><path d="M465.394 504.027A5.038 5.038 0 0 1 461.41 506a5.008 5.008 0 0 1-4.146-2.201h5.347v-2h-6.127a4.895 4.895 0 0 1-.081-.799c0-.274.038-.538.081-.8h6.127v-2h-5.347a5.007 5.007 0 0 1 7.878-.532l1.49-1.334A7.011 7.011 0 0 0 461.41 494a7.014 7.014 0 0 0-6.418 4.2H453v2h1.452c-.03.263-.049.529-.049.8 0 .27.019.537.049.799H453v2h1.992A7.014 7.014 0 0 0 461.41 508a7.052 7.052 0 0 0 5.574-2.76l-1.59-1.213Z" fill="#1a2040" fill-rule="evenodd" data-name="Path 977"/></g></svg>