<svg width="24" height="24" xmlns="http://www.w3.org/2000/svg">

 <g>
  <title>Layer 1</title>
  <g stroke="null" id="svg_1" data-name="Details">
   <path stroke="null" id="svg_2" data-name="Path 975" fill-rule="evenodd" fill="#1a2040" d="m12,9.74782a2.2526,2.25218 0 1 0 -0.00113,4.50323a2.2526,2.25218 0 0 0 0.00113,-4.50323"/>
   <path stroke="null" id="svg_3" data-name="Path 976" fill-rule="evenodd" fill="#1a2040" d="m18.75779,13.12609l2.2526,0l0,-2.25218l-2.2526,0l0,-2.16772l-0.93595,-0.93465l1.3448,-1.34568l-1.59259,-1.59229l-1.3448,1.34568l-0.93595,-0.93578l-2.167,0l0,-2.25218l-2.2526,0l0,2.25218l-2.16813,0l-0.93595,0.93578l-1.3448,-1.34568l-1.59259,1.59229l1.3448,1.34568l-0.93483,0.93465l0,2.16772l-2.2526,0l0,2.25218l2.2526,0l0,2.16772l0.93483,0.93465l-1.3448,1.34568l1.59259,1.59229l1.3448,-1.34568l0.93595,0.93578l2.16813,0l0,2.25218l2.2526,0l0,-2.25218l2.167,0l0.93595,-0.93578l1.3448,1.34568l1.59259,-1.59229l-1.3448,-1.34568l0.93595,-0.93465l0,-2.16772zm-9.11964,3.37827l-2.14335,-2.14295l0,-4.72282l2.14335,-2.14295l4.72257,0l2.14447,2.14295l0,4.72282l-2.14447,2.14295l-4.72257,0z"/>
  </g>
 </g>
</svg>