<svg id="help_outline_black_24dp" xmlns="http://www.w3.org/2000/svg" width="64" height="64" viewBox="0 0 64 64">
  <path id="Path_2810" data-name="Path 2810" d="M0,0H64V64H0Z" fill="none"/>
  <path id="Path_2811" data-name="Path 2811" d="M26,44.667h5.333V39.333H26ZM28.667,2A26.667,26.667,0,1,0,55.333,28.667,26.676,26.676,0,0,0,28.667,2Zm0,48A21.333,21.333,0,1,1,50,28.667,21.362,21.362,0,0,1,28.667,50Zm0-37.333A10.664,10.664,0,0,0,18,23.333h5.333a5.333,5.333,0,0,1,10.667,0c0,5.333-8,4.667-8,13.333h5.333c0-6,8-6.667,8-13.333A10.664,10.664,0,0,0,28.667,12.667Z" transform="translate(3.333 3.333)" fill="#18d992"/>
</svg>
