<svg id="lang_24px_icn" xmlns="http://www.w3.org/2000/svg" width="18" height="18" viewBox="0 0 18 18">
  <path id="Path_764" data-name="Path 764" d="M0,0H18V18H0Z" fill="none"/>
  <path id="Path_765" data-name="Path 765" d="M9.493,2A7.5,7.5,0,1,0,17,9.5,7.5,7.5,0,0,0,9.493,2Zm5.2,4.5H12.477a11.737,11.737,0,0,0-1.035-2.67A6.022,6.022,0,0,1,14.69,6.5ZM9.5,3.53A10.565,10.565,0,0,1,10.932,6.5H8.068A10.565,10.565,0,0,1,9.5,3.53ZM3.7,11a5.867,5.867,0,0,1,0-3H6.23a12.386,12.386,0,0,0-.105,1.5A12.386,12.386,0,0,0,6.23,11Zm.615,1.5H6.523a11.737,11.737,0,0,0,1.035,2.67A5.99,5.99,0,0,1,4.31,12.5Zm2.213-6H4.31A5.99,5.99,0,0,1,7.557,3.83,11.737,11.737,0,0,0,6.523,6.5ZM9.5,15.47A10.565,10.565,0,0,1,8.068,12.5h2.865A10.565,10.565,0,0,1,9.5,15.47ZM11.255,11H7.745a11.035,11.035,0,0,1-.12-1.5A10.939,10.939,0,0,1,7.745,8h3.51a10.939,10.939,0,0,1,.12,1.5A11.035,11.035,0,0,1,11.255,11Zm.188,4.17a11.737,11.737,0,0,0,1.035-2.67H14.69A6.022,6.022,0,0,1,11.443,15.17ZM12.77,11a12.387,12.387,0,0,0,.1-1.5,12.387,12.387,0,0,0-.1-1.5h2.535a5.867,5.867,0,0,1,0,3Z" transform="translate(-0.5 -0.5)" fill="#000000"/>
</svg>
