<svg xmlns="http://www.w3.org/2000/svg" width="24" height="24" viewBox="0 0 24 24">
  <g id="my_prioject_icn_24x24px" transform="translate(21384.5 14709.5)">
    <rect id="Rectangle_76" data-name="Rectangle 76" width="24" height="24" transform="translate(-21384.5 -14709.5)" fill="rgba(255,233,233,0)"/>
    <path id="Icon_awesome-star" data-name="Icon awesome-star" d="M10.085.644,7.721,5.436l-5.288.771a1.159,1.159,0,0,0-.641,1.976l3.826,3.728-.9,5.266A1.158,1.158,0,0,0,6.393,18.4l4.731-2.487L15.855,18.4a1.158,1.158,0,0,0,1.679-1.22l-.9-5.266,3.826-3.728a1.159,1.159,0,0,0-.641-1.976l-5.288-.771L12.163.644a1.159,1.159,0,0,0-2.078,0Z" transform="translate(-21383.625 -14706.766)" fill="#1a2040"/>
  </g>
</svg>
