<svg xmlns="http://www.w3.org/2000/svg" width="37.6" height="32.8" viewBox="-9861.801 -3059.4 37.6 32.8"><g data-name="Group 3621"><path d="m-9824.2-3045.784-5.447-13.616h-26.706l-5.448 13.616v14.384h2.4v2.8a2 2 0 0 0 2 2h2.402a2 2 0 0 0 2-2v-2.8h20v2.8c0 1.106.894 2 2 2h2.4c1.106 0 2-.894 2-2v-2.8h2.398v-14.384Zm-29.447-9.616h21.294l3.198 8h-27.692l3.2-8Zm25.446 20h-29.6v-8h29.6v8Z" fill="#fff" fill-rule="evenodd" data-name="Path 2777"/><path d="M-9855-3040.6h4.8v2.4h-4.8v-2.4z" fill="#fff" fill-rule="evenodd" data-name="Rectangle 3190"/><path d="M-9835.803-3040.6h4.8v2.4h-4.8v-2.4z" fill="#fff" fill-rule="evenodd" data-name="Rectangle 3191"/></g></svg>