<svg xmlns="http://www.w3.org/2000/svg" width="40" height="40" viewBox="0 0 40 40">
  <g id="Group_3721" data-name="Group 3721" transform="translate(20434.6 5202)">
    <rect id="Rectangle_3166" data-name="Rectangle 3166" width="40" height="40" transform="translate(-20434.6 -5202)" fill="none"/>
    <path id="Path_2802" data-name="Path 2802" d="M96.333,15.147,91.8,3.8H69.54L65,15.147V27.133h2v2.333a1.666,1.666,0,0,0,1.667,1.667h2a1.666,1.666,0,0,0,1.667-1.667V27.133H89v2.333a1.665,1.665,0,0,0,1.667,1.667h2a1.665,1.665,0,0,0,1.667-1.667V27.133h2ZM71.8,7.133H89.54L92.2,13.8H69.128ZM93,23.8H68.333V17.133H93Z" transform="translate(-20495.268 -5199.467)" fill="#1f0237"/>
    <rect id="Rectangle_3167" data-name="Rectangle 3167" width="4" height="2" transform="translate(-20424.6 -5180)" fill="#1f0237"/>
    <rect id="Rectangle_3168" data-name="Rectangle 3168" width="4" height="2" transform="translate(-20408.602 -5180)" fill="#1f0237"/>
  </g>
</svg>
