<svg xmlns="http://www.w3.org/2000/svg" width="40" height="40" viewBox="0 0 40 40">
  <g id="Group_3668" data-name="Group 3668" transform="translate(20466.016 5202.184)">
    <rect id="Rectangle_3162" data-name="Rectangle 3162" width="40" height="40" transform="translate(-20466.016 -5202.184)" fill="none"/>
    <path id="Path_2796" data-name="Path 2796" d="M51.448,12.171A5.647,5.647,0,1,0,57.1,17.817a5.653,5.653,0,0,0-5.648-5.646m0,7.987a2.339,2.339,0,1,1,2.34-2.34,2.343,2.343,0,0,1-2.34,2.34" transform="translate(-20487.463 -5194.072)" fill="#1f0237"/>
    <path id="Path_2797" data-name="Path 2797" d="M59.309,13.053,56.623,5H49.477V8.308h4.762l1.285,3.854-6.731,6.731H42.83l-1.158-4.631h1.852V10.954h-7.94v3.308h2.679l1.158,4.631H33.6V22.2h2.266v.306a5.647,5.647,0,1,0,11.294,0V22.2h3ZM43.854,22.507a2.339,2.339,0,1,1-4.679,0V22.2h4.679Z" transform="translate(-20495.441 -5198.761)" fill="#1f0237"/>
  </g>
</svg>
