<svg xmlns="http://www.w3.org/2000/svg" width="37.768" height="27.786" viewBox="-7651.988 -3183.893 37.768 27.786"><g data-name="Group 3605"><path d="M-7620.998-3169.66c-3.738 0-6.778 3.038-6.778 6.775a6.785 6.785 0 0 0 6.778 6.778 6.785 6.785 0 0 0 6.777-6.778c0-3.737-3.04-6.776-6.777-6.776m0 9.584a2.812 2.812 0 0 1-2.809-2.808 2.812 2.812 0 0 1 2.809-2.806 2.812 2.812 0 0 1 2.808 2.806 2.812 2.812 0 0 1-2.808 2.808" fill="#7a2ee6" fill-rule="evenodd" data-name="Path 2771"/><path d="m-7621.139-3174.23-3.223-9.663h-8.576v3.97h5.714l1.542 4.624-8.078 8.077h-7.154l-1.39-5.557h2.223v-3.97h-9.528v3.97h3.215l1.39 5.557h-6.985v3.97h2.72v.367a6.785 6.785 0 0 0 6.777 6.777c3.737 0 6.776-3.04 6.776-6.777v-.367h3.6l10.977-10.978Zm-18.547 11.345a2.812 2.812 0 0 1-2.806 2.808 2.812 2.812 0 0 1-2.808-2.808v-.367h5.614v.367Z" fill="#7a2ee6" fill-rule="evenodd" data-name="Path 2772"/></g></svg>