<?xml version="1.0" encoding="utf-8"?>
<!-- Generator: Adobe Illustrator 25.3.1, SVG Export Plug-In . SVG Version: 6.00 Build 0)  -->
<svg version="1.1" id="a1631a7a-df68-484c-9ff7-97fcdbb08b35"
	 xmlns="http://www.w3.org/2000/svg" xmlns:xlink="http://www.w3.org/1999/xlink" x="0px" y="0px" viewBox="0 0 80 80"
	 style="enable-background:new 0 0 80 80;" xml:space="preserve">
<style type="text/css">
	.st0{fill:none;}
	.st1{fill:none;stroke:#F8F8FC;stroke-width:2;stroke-miterlimit:10;}
	.st2{enable-background:new    ;}
	.st3{fill:#F8F8FC;}
</style>
<rect x="24" y="13" class="st0" width="32" height="32"/>
<path class="st1" d="M32.7,38.7h-3l-1.9-1.9V26.1l6.8-6.8h10.6l6.8,6.8v10.7l-1.9,1.9h-3"/>
<path class="st1" d="M38.7,36.7L36,34.1v-2.5l2.6-2.6h2.5l2.6,2.6v2.5l-2.6,2.6L38.7,36.7z"/>
<line class="st1" x1="42.5" y1="30.2" x2="46.8" y2="26"/>
<g id="f234bc04-4517-4d05-9d96-95a272a51479">
	<g class="st2">
		<path class="st3" d="M30.2,64h-1.1l-0.9-2.4h-3.6L23.8,64h-1.1l3.2-8.4h1L30.2,64z M27.9,60.8l-1.3-3.6c0-0.1-0.1-0.3-0.1-0.6h0
			c0,0.2-0.1,0.4-0.1,0.6L25,60.8H27.9z"/>
		<path class="st3" d="M36.4,64h-1v-1h0c-0.4,0.8-1.1,1.2-2.1,1.2c-0.8,0-1.4-0.3-1.8-0.8s-0.7-1.3-0.7-2.2c0-1,0.2-1.8,0.8-2.4
			s1.2-0.9,2-0.9c0.8,0,1.4,0.3,1.8,1h0v-3.7h1V64z M35.5,61.3v-0.9c0-0.5-0.2-0.9-0.5-1.2s-0.7-0.5-1.2-0.5c-0.6,0-1,0.2-1.4,0.6
			s-0.5,1-0.5,1.8c0,0.7,0.2,1.2,0.5,1.6s0.8,0.6,1.3,0.6c0.5,0,1-0.2,1.3-0.6S35.5,61.9,35.5,61.3z"/>
		<path class="st3" d="M46.9,64h-1v-3.4c0-0.7-0.1-1.1-0.3-1.4s-0.5-0.4-1-0.4c-0.4,0-0.8,0.2-1,0.6s-0.4,0.8-0.4,1.3V64h-1v-3.6
			c0-1.2-0.5-1.8-1.4-1.8c-0.4,0-0.8,0.2-1,0.5s-0.4,0.8-0.4,1.4V64h-1v-6h1v0.9h0c0.4-0.7,1-1.1,1.9-1.1c0.4,0,0.8,0.1,1.1,0.3
			s0.5,0.5,0.6,0.9c0.4-0.8,1.1-1.2,2-1.2c1.3,0,2,0.8,2,2.4V64z"/>
		<path class="st3" d="M49.2,56.5c-0.2,0-0.3-0.1-0.4-0.2s-0.2-0.3-0.2-0.4s0.1-0.3,0.2-0.4s0.3-0.2,0.4-0.2c0.2,0,0.3,0.1,0.4,0.2
			s0.2,0.3,0.2,0.4c0,0.2-0.1,0.3-0.2,0.4S49.4,56.5,49.2,56.5z M49.7,64h-1v-6h1V64z"/>
		<path class="st3" d="M56.6,64h-1v-3.4c0-1.3-0.5-1.9-1.4-1.9c-0.5,0-0.9,0.2-1.2,0.5s-0.5,0.8-0.5,1.4V64h-1v-6h1v1h0
			c0.5-0.8,1.1-1.1,2-1.1c0.7,0,1.2,0.2,1.5,0.6s0.5,1,0.5,1.8V64z"/>
	</g>
</g>
</svg>
