<?xml version="1.0" encoding="utf-8"?>
<!-- Generator: Adobe Illustrator 25.3.1, SVG Export Plug-In . SVG Version: 6.00 Build 0)  -->
<svg version="1.1" id="b1065f84-5ad3-4d23-a1bc-ecc93dfb2c22"
	 xmlns="http://www.w3.org/2000/svg" xmlns:xlink="http://www.w3.org/1999/xlink" x="0px" y="0px" viewBox="0 0 80 80"
	 style="enable-background:new 0 0 80 80;" xml:space="preserve">
<style type="text/css">
	.st0{fill:none;}
	.st1{fill:none;stroke:#F8F8FC;stroke-width:2;stroke-miterlimit:10;}
	.st2{enable-background:new    ;}
	.st3{fill:#F8F8FC;}
</style>
<rect id="b645ad55-4bf3-414b-9c66-d06c0819a3f3" x="24" y="13" class="st0" width="32" height="32"/>
<g id="a258506c-b3fe-4620-b1a0-e161fc55b439">
	<path id="bf9f7d41-b7c8-410f-94b9-3eb30a52e4d6" class="st1" d="M34.7,18.3H32l-2.7,2.5v19l2.7,2.5h16l2.7-1.3V20.9L48,18.3h-2.7"
		/>
	<path id="baa73599-43ef-4976-860f-ae7d79de4b25" class="st1" d="M45.3,18.9l-2.7-3.2h-5.3l-2.6,3.2L34.7,21h10.7V18.9z"/>
	<line id="af00f359-24de-468b-9bcb-1aea95926083" class="st1" x1="33.3" y1="26.3" x2="46.7" y2="26.3"/>
	<line id="e1f58c52-c4b4-4f7b-81dc-c9624756ccc5" class="st1" x1="33.3" y1="31.7" x2="46.7" y2="31.7"/>
	<line id="abbd9d43-51e6-457a-97c3-1d19457c7fb2" class="st1" x1="33.3" y1="37" x2="46.7" y2="37"/>
</g>
<g id="bd7f31de-a174-40b4-b84c-27c18a993188">
	<g class="st2">
		<path class="st3" d="M20.1,64v-8.4h2.4c0.7,0,1.3,0.2,1.7,0.5s0.6,0.8,0.6,1.4c0,0.5-0.1,0.9-0.4,1.2s-0.6,0.6-1.1,0.8v0
			c0.6,0.1,1,0.3,1.4,0.6s0.5,0.8,0.5,1.4c0,0.7-0.3,1.3-0.8,1.7s-1.2,0.7-2,0.7H20.1z M21.1,56.5v2.7h1c0.5,0,1-0.1,1.3-0.4
			s0.5-0.6,0.5-1.1c0-0.8-0.5-1.2-1.6-1.2H21.1z M21.1,60.1v3h1.3c0.6,0,1-0.1,1.3-0.4s0.5-0.6,0.5-1.1c0-1-0.7-1.5-2-1.5H21.1z"/>
		<path class="st3" d="M31.7,64h-1v-0.9h0c-0.4,0.7-1,1.1-1.9,1.1c-1.4,0-2.1-0.9-2.1-2.6V58h1v3.4c0,1.3,0.5,1.9,1.5,1.9
			c0.5,0,0.9-0.2,1.2-0.5s0.5-0.8,0.5-1.4V58h1V64z"/>
		<path class="st3" d="M38.8,63.5c0,2.2-1.1,3.3-3.2,3.3c-0.7,0-1.4-0.1-1.9-0.4v-1c0.7,0.4,1.3,0.6,1.9,0.6c1.5,0,2.2-0.8,2.2-2.4
			V63h0c-0.5,0.8-1.1,1.1-2.1,1.1c-0.7,0-1.3-0.3-1.8-0.8s-0.7-1.2-0.7-2.1c0-1,0.2-1.8,0.7-2.4s1.2-0.9,2-0.9c0.8,0,1.4,0.3,1.8,1
			h0V58h1V63.5z M37.8,61.3v-0.9c0-0.5-0.2-0.9-0.5-1.2s-0.7-0.5-1.2-0.5c-0.6,0-1.1,0.2-1.4,0.6s-0.5,1-0.5,1.8
			c0,0.7,0.2,1.2,0.5,1.6s0.7,0.6,1.3,0.6c0.5,0,1-0.2,1.3-0.6S37.8,61.9,37.8,61.3z"/>
		<path class="st3" d="M48.5,64h-4.4v-8.4h1v7.5h3.4V64z"/>
		<path class="st3" d="M50.1,56.5c-0.2,0-0.3-0.1-0.4-0.2s-0.2-0.3-0.2-0.4s0.1-0.3,0.2-0.4s0.3-0.2,0.4-0.2c0.2,0,0.3,0.1,0.4,0.2
			s0.2,0.3,0.2,0.4c0,0.2-0.1,0.3-0.2,0.4S50.3,56.5,50.1,56.5z M50.6,64h-1v-6h1V64z"/>
		<path class="st3" d="M52.2,63.8v-1c0.5,0.4,1.1,0.6,1.7,0.6c0.8,0,1.3-0.3,1.3-0.8c0-0.2,0-0.3-0.1-0.4s-0.2-0.2-0.3-0.3
			s-0.3-0.2-0.4-0.2s-0.3-0.1-0.5-0.2c-0.3-0.1-0.5-0.2-0.7-0.3s-0.4-0.2-0.5-0.4s-0.2-0.3-0.3-0.5s-0.1-0.4-0.1-0.6
			c0-0.3,0.1-0.5,0.2-0.7s0.3-0.4,0.5-0.5s0.5-0.3,0.7-0.3s0.6-0.1,0.9-0.1c0.5,0,1,0.1,1.4,0.3v1c-0.4-0.3-0.9-0.4-1.5-0.4
			c-0.2,0-0.3,0-0.5,0.1s-0.3,0.1-0.4,0.2s-0.2,0.2-0.2,0.3s-0.1,0.2-0.1,0.3c0,0.2,0,0.3,0.1,0.4s0.1,0.2,0.2,0.3s0.2,0.2,0.4,0.2
			s0.3,0.1,0.5,0.2c0.3,0.1,0.5,0.2,0.7,0.3s0.4,0.2,0.5,0.4s0.3,0.3,0.3,0.5s0.1,0.4,0.1,0.6c0,0.3-0.1,0.6-0.2,0.8
			s-0.3,0.4-0.5,0.5S55,64,54.7,64s-0.6,0.1-0.9,0.1C53.2,64.1,52.6,64,52.2,63.8z"/>
		<path class="st3" d="M60.4,63.9c-0.2,0.1-0.5,0.2-0.9,0.2c-1.1,0-1.6-0.6-1.6-1.8v-3.6h-1V58h1v-1.5l1-0.3V58h1.5v0.8h-1.5v3.4
			c0,0.4,0.1,0.7,0.2,0.9s0.4,0.3,0.7,0.3c0.2,0,0.5-0.1,0.6-0.2V63.9z"/>
	</g>
</g>
</svg>
