<?xml version="1.0" encoding="utf-8"?>
<!-- Generator: Adobe Illustrator 25.3.1, SVG Export Plug-In . SVG Version: 6.00 Build 0)  -->
<svg version="1.1" id="b5cd0e60-0ae8-4c5e-89da-000bf174161f"
	 xmlns="http://www.w3.org/2000/svg" xmlns:xlink="http://www.w3.org/1999/xlink" x="0px" y="0px" viewBox="0 0 80 80"
	 style="enable-background:new 0 0 80 80;" xml:space="preserve">
<style type="text/css">
	.st0{fill:none;}
	.st1{fill:none;stroke:#F8F8FC;stroke-width:2;stroke-miterlimit:10;}
	.st2{enable-background:new    ;}
	.st3{fill:#F8F8FC;}
</style>
<rect x="24" y="13" class="st0" width="32" height="32"/>
<polygon class="st1" points="50.8,23.2 50.8,41.1 32.9,41.1 32.9,36.2 28.3,36.2 26.6,34.5 26.6,29.9 28.3,28.1 32.9,28.1 
	32.9,23.2 37.8,23.2 37.8,18.6 39.6,16.9 44.2,16.9 45.9,18.6 45.9,23.2 "/>
<g id="ab222fbd-34f5-4b56-a2fa-8908420c5300">
	<g class="st2">
		<path class="st3" d="M21.2,60.8V64h-1v-8.4h2.3c0.9,0,1.6,0.2,2.1,0.7s0.7,1.1,0.7,1.9s-0.3,1.4-0.8,2s-1.3,0.8-2.2,0.8H21.2z
			 M21.2,56.5v3.4h1c0.7,0,1.2-0.2,1.6-0.5s0.5-0.7,0.5-1.3c0-1.1-0.7-1.7-2-1.7H21.2z"/>
		<path class="st3" d="M29.9,59c-0.2-0.1-0.4-0.2-0.7-0.2c-0.4,0-0.8,0.2-1,0.6s-0.4,0.9-0.4,1.6V64h-1v-6h1v1.2h0
			c0.1-0.4,0.3-0.8,0.6-1s0.6-0.4,0.9-0.4c0.2,0,0.4,0,0.6,0.1V59z"/>
		<path class="st3" d="M33.5,64.1c-0.9,0-1.6-0.3-2.1-0.8s-0.8-1.3-0.8-2.2c0-1,0.3-1.8,0.8-2.4s1.3-0.8,2.2-0.8
			c0.9,0,1.6,0.3,2.1,0.8s0.8,1.3,0.8,2.3c0,1-0.3,1.7-0.8,2.3S34.4,64.1,33.5,64.1z M33.5,58.7c-0.6,0-1.1,0.2-1.5,0.6
			s-0.5,1-0.5,1.7c0,0.7,0.2,1.3,0.5,1.7s0.8,0.6,1.5,0.6c0.6,0,1.1-0.2,1.4-0.6s0.5-1,0.5-1.7c0-0.8-0.2-1.3-0.5-1.7
			S34.2,58.7,33.5,58.7z"/>
		<path class="st3" d="M39,63.7c0,1-0.2,1.7-0.6,2.3s-1,0.8-1.7,0.8c-0.3,0-0.5-0.1-0.8-0.2v-0.9c0.3,0.2,0.6,0.3,0.8,0.3
			c0.9,0,1.3-0.7,1.3-2.1V58h1V63.7z M38.5,56.5c-0.2,0-0.3-0.1-0.4-0.2s-0.2-0.3-0.2-0.4s0.1-0.3,0.2-0.4s0.3-0.2,0.4-0.2
			c0.2,0,0.3,0.1,0.4,0.2s0.2,0.3,0.2,0.4c0,0.2-0.1,0.3-0.2,0.4S38.7,56.5,38.5,56.5z"/>
		<path class="st3" d="M45.7,61.2h-4.2c0,0.7,0.2,1.2,0.5,1.5s0.8,0.5,1.4,0.5c0.7,0,1.3-0.2,1.9-0.7v0.9c-0.5,0.4-1.2,0.6-2.1,0.6
			c-0.8,0-1.5-0.3-2-0.8c-0.5-0.5-0.7-1.3-0.7-2.3c0-0.9,0.3-1.7,0.8-2.3c0.5-0.6,1.2-0.9,2-0.9s1.4,0.3,1.8,0.8s0.6,1.2,0.6,2.1
			V61.2z M44.7,60.4c0-0.6-0.1-1-0.4-1.3s-0.6-0.5-1.1-0.5c-0.5,0-0.8,0.2-1.2,0.5s-0.5,0.7-0.6,1.3H44.7z"/>
		<path class="st3" d="M51.3,63.7c-0.5,0.3-1,0.4-1.6,0.4c-0.9,0-1.5-0.3-2.1-0.8s-0.8-1.3-0.8-2.2c0-1,0.3-1.8,0.8-2.4
			s1.3-0.9,2.3-0.9c0.5,0,1,0.1,1.4,0.3v1c-0.4-0.3-0.9-0.5-1.4-0.5c-0.6,0-1.1,0.2-1.5,0.7s-0.6,1-0.6,1.7c0,0.7,0.2,1.3,0.6,1.7
			s0.9,0.6,1.5,0.6c0.5,0,1-0.2,1.5-0.5V63.7z"/>
		<path class="st3" d="M55.5,63.9c-0.2,0.1-0.5,0.2-0.9,0.2c-1.1,0-1.6-0.6-1.6-1.8v-3.6h-1V58h1v-1.5l1-0.3V58h1.5v0.8H54v3.4
			c0,0.4,0.1,0.7,0.2,0.9s0.4,0.3,0.7,0.3c0.2,0,0.5-0.1,0.6-0.2V63.9z"/>
		<path class="st3" d="M56.4,63.8v-1c0.5,0.4,1.1,0.6,1.7,0.6c0.8,0,1.3-0.3,1.3-0.8c0-0.2,0-0.3-0.1-0.4s-0.2-0.2-0.3-0.3
			s-0.3-0.2-0.4-0.2s-0.3-0.1-0.5-0.2c-0.3-0.1-0.5-0.2-0.7-0.3s-0.4-0.2-0.5-0.4s-0.2-0.3-0.3-0.5s-0.1-0.4-0.1-0.6
			c0-0.3,0.1-0.5,0.2-0.7s0.3-0.4,0.5-0.5s0.5-0.3,0.7-0.3s0.6-0.1,0.9-0.1c0.5,0,1,0.1,1.4,0.3v1c-0.4-0.3-0.9-0.4-1.5-0.4
			c-0.2,0-0.3,0-0.5,0.1s-0.3,0.1-0.4,0.2s-0.2,0.2-0.2,0.3s-0.1,0.2-0.1,0.3c0,0.2,0,0.3,0.1,0.4s0.1,0.2,0.2,0.3s0.2,0.2,0.4,0.2
			s0.3,0.1,0.5,0.2c0.3,0.1,0.5,0.2,0.7,0.3s0.4,0.2,0.5,0.4s0.3,0.3,0.3,0.5s0.1,0.4,0.1,0.6c0,0.3-0.1,0.6-0.2,0.8
			s-0.3,0.4-0.5,0.5S59.2,64,58.9,64s-0.6,0.1-0.9,0.1C57.4,64.1,56.9,64,56.4,63.8z"/>
	</g>
</g>
</svg>
