<?xml version="1.0" encoding="utf-8"?>
<!-- Generator: Adobe Illustrator 25.1.0, SVG Export Plug-In . SVG Version: 6.00 Build 0)  -->
<svg version="1.1" id="Layer_1" xmlns="http://www.w3.org/2000/svg" xmlns:xlink="http://www.w3.org/1999/xlink" x="0px" y="0px"
	 viewBox="0 0 48 48" style="enable-background:new 0 0 48 48;" xml:space="preserve">
<style type="text/css">
	.st0{fill:#828382;}
</style>
<g>
	<path class="st0" d="M41.1,1H6.9C3.7,1,1,3.7,1,6.9v34.2C1,44.3,3.7,47,6.9,47h34.2c3.2,0,5.9-2.6,5.9-5.9V6.9
		C47,3.7,44.3,1,41.1,1z M3,41.1V6.9C3,4.7,4.7,3,6.9,3h34.2C43.3,3,45,4.7,45,6.9v22l-8.2-8.2c-0.8-0.8-1.9-1.3-3.1-1.3
		s-2.2,0.4-3.1,1.3L6.5,45C4.5,44.8,3,43.1,3,41.1z M41.1,45H9.3l22.8-22.9c0.9-0.9,2.4-0.9,3.3,0l9.6,9.6v9.4
		C45,43.3,43.3,45,41.1,45z"/>
	<path class="st0" d="M15.4,20.1c2.6,0,4.7-2.1,4.7-4.7c0-2.6-2.1-4.7-4.7-4.7c-2.6,0-4.7,2.1-4.7,4.7C10.7,18,12.8,20.1,15.4,20.1z
		 M15.4,12.7c1.5,0,2.7,1.2,2.7,2.7s-1.2,2.7-2.7,2.7s-2.7-1.2-2.7-2.7C12.7,13.9,13.9,12.7,15.4,12.7z"/>
</g>
</svg>
