<?xml version="1.0" encoding="utf-8"?>
<!-- Generator: Adobe Illustrator 24.0.1, SVG Export Plug-In . SVG Version: 6.00 Build 0)  -->
<svg version="1.1" id="Layer_1" xmlns="http://www.w3.org/2000/svg" xmlns:xlink="http://www.w3.org/1999/xlink" x="0px" y="0px"
	 viewBox="0 0 40 40" style="enable-background:new 0 0 40 40;" xml:space="preserve">
<style type="text/css">
	.st0{fill:none;}
	.st1{fill:none;stroke:#000000;stroke-width:2;stroke-miterlimit:10;}
	.st2{fill:none;stroke:#010101;stroke-width:2;stroke-miterlimit:10;}
	.st3{fill:none;stroke:#010101;stroke-width:2;stroke-linejoin:round;stroke-miterlimit:10;}
	.st4{fill:none;stroke:#000000;stroke-width:2;stroke-linejoin:round;stroke-miterlimit:10;}
</style>
<g>
	<path d="M24.6,2h-9.1L9,8.4v9.1L20,38l11-20.4V8.4L24.6,2z M28,14h-2.1c-0.4,2.5-2.4,4.5-4.9,4.9V21h-2v-2.1
		c-2.5-0.4-4.5-2.4-4.9-4.9H12v-2h2.1c0.4-2.5,2.4-4.5,4.9-4.9V5h2v2.1c2.5,0.4,4.5,2.4,4.9,4.9H28V14z"/>
	<path d="M23.9,12c-0.4-1.4-1.5-2.5-2.9-2.9V11h-2V9.1c-1.4,0.4-2.5,1.5-2.9,2.9H18v2h-1.9c0.4,1.4,1.5,2.5,2.9,2.9V15h2v1.9
		c1.4-0.4,2.5-1.5,2.9-2.9H22v-2H23.9z"/>
</g>
</svg>
