<svg id="b1cfc959-1218-422c-8f16-bcd3c93a1f71" data-name="Layer 1" xmlns="http://www.w3.org/2000/svg" width="32" height="56" viewBox="0 0 32 56"><path d="M22.69,0H9.45L0,9.31V22.54L16,56,32,22.7V9.31Z" fill="#f23838"/><path d="M24.58,14.55a8.63,8.63,0,0,0-7.13-7.13V4.36H14.54V7.42a8.62,8.62,0,0,0-7.12,7.13H4.36v2.9H7.42a8.63,8.63,0,0,0,7.12,7.13v3.06h2.91V24.58a8.63,8.63,0,0,0,7.12-7.13h3.06v-2.9Zm-2.91,2.91a6.16,6.16,0,0,1-4.22,4.21V18.91h-2.9v2.76a6.16,6.16,0,0,1-4.22-4.22h2.76V14.54H10.33a6.14,6.14,0,0,1,4.22-4.21v2.76h2.9V10.33a6.16,6.16,0,0,1,4.22,4.21H18.91v2.92Z" fill="#fff"/></svg>